<svg xmlns="http://www.w3.org/2000/svg" xmlns:xlink="http://www.w3.org/1999/xlink" width="500" zoomAndPan="magnify" viewBox="0 0 375 374.999991" height="500" preserveAspectRatio="xMidYMid meet" version="1.0"><defs><g/></defs><rect x="-37.5" width="450" fill="#ffffff" y="-37.499999" height="449.999989" fill-opacity="1"/><rect x="-37.5" width="450" fill="#d9d9d9" y="-37.499999" height="449.999989" fill-opacity="1"/><g fill="#2b2b2b" fill-opacity="1"><g transform="translate(117.704996, 200.999987)"><g><path d="M 15.984375 -23.25 L 15.984375 -19.421875 C 15.984375 -19.046875 15.796875 -18.859375 15.421875 -18.859375 L 11.875 -18.859375 C 11.5 -18.859375 11.3125 -19.046875 11.3125 -19.421875 L 11.3125 -22.265625 C 11.3125 -23.210938 10.835938 -23.6875 9.890625 -23.6875 L 8.046875 -23.6875 C 7.097656 -23.6875 6.625 -23.210938 6.625 -22.265625 L 6.625 -6.09375 C 6.625 -5.15625 7.097656 -4.6875 8.046875 -4.6875 L 9.890625 -4.6875 C 10.835938 -4.6875 11.3125 -5.15625 11.3125 -6.09375 L 11.3125 -8.9375 C 11.3125 -9.3125 11.5 -9.5 11.875 -9.5 L 15.421875 -9.5 C 15.796875 -9.5 15.984375 -9.3125 15.984375 -8.9375 L 15.984375 -5.109375 C 15.984375 -3.453125 15.546875 -2.1875 14.671875 -1.3125 C 13.796875 -0.4375 12.535156 0 10.890625 0 L 6.90625 0 C 5.257812 0 3.988281 -0.4375 3.09375 -1.3125 C 2.207031 -2.1875 1.765625 -3.453125 1.765625 -5.109375 L 1.765625 -23.25 C 1.765625 -24.9375 2.207031 -26.207031 3.09375 -27.0625 C 3.988281 -27.925781 5.257812 -28.359375 6.90625 -28.359375 L 10.890625 -28.359375 C 12.535156 -28.359375 13.796875 -27.925781 14.671875 -27.0625 C 15.546875 -26.207031 15.984375 -24.9375 15.984375 -23.25 Z M 15.984375 -23.25 "/></g></g></g><g fill="#2b2b2b" fill-opacity="1"><g transform="translate(142.982851, 200.999987)"><g><path d="M 11.125 -16.515625 L 11.125 -27.796875 C 11.125 -28.171875 11.316406 -28.359375 11.703125 -28.359375 L 15.34375 -28.359375 C 15.75 -28.359375 15.953125 -28.171875 15.953125 -27.796875 L 15.953125 -0.5625 C 15.953125 -0.1875 15.75 0 15.34375 0 L 11.703125 0 C 11.316406 0 11.125 -0.1875 11.125 -0.5625 L 11.125 -11.84375 L 6.59375 -11.84375 L 6.59375 -0.5625 C 6.59375 -0.1875 6.40625 0 6.03125 0 L 2.375 0 C 1.96875 0 1.765625 -0.1875 1.765625 -0.5625 L 1.765625 -27.796875 C 1.765625 -28.171875 1.96875 -28.359375 2.375 -28.359375 L 6.03125 -28.359375 C 6.40625 -28.359375 6.59375 -28.171875 6.59375 -27.796875 L 6.59375 -16.515625 Z M 11.125 -16.515625 "/></g></g></g><g fill="#2b2b2b" fill-opacity="1"><g transform="translate(168.225262, 200.999987)"><g><path d="M 18.859375 0 L 15.109375 0 C 14.796875 0 14.601562 -0.164062 14.53125 -0.5 L 13.546875 -5.671875 L 7.234375 -5.671875 L 6.28125 -0.5 C 6.207031 -0.164062 6.015625 0 5.703125 0 L 1.921875 0 C 1.492188 0 1.335938 -0.203125 1.453125 -0.609375 L 7.34375 -27.859375 C 7.40625 -28.191406 7.601562 -28.359375 7.9375 -28.359375 L 12.875 -28.359375 C 13.195312 -28.359375 13.394531 -28.191406 13.46875 -27.859375 L 19.359375 -0.609375 C 19.429688 -0.203125 19.265625 0 18.859375 0 Z M 12.65625 -9.78125 L 10.390625 -22.15625 L 8.125 -9.78125 Z M 12.65625 -9.78125 "/></g></g></g><g fill="#2b2b2b" fill-opacity="1"><g transform="translate(196.516297, 200.999987)"><g><path d="M 16.34375 -23.25 L 16.34375 -14.609375 C 16.34375 -12.242188 15.476562 -10.679688 13.75 -9.921875 L 16.203125 -0.640625 C 16.316406 -0.210938 16.148438 0 15.703125 0 L 12.015625 0 C 11.679688 0 11.484375 -0.164062 11.421875 -0.5 L 9.046875 -9.5 L 6.59375 -9.5 L 6.59375 -0.5625 C 6.59375 -0.1875 6.40625 0 6.03125 0 L 2.34375 0 C 1.957031 0 1.765625 -0.1875 1.765625 -0.5625 L 1.765625 -27.796875 C 1.765625 -28.171875 1.957031 -28.359375 2.34375 -28.359375 L 11.234375 -28.359375 C 12.910156 -28.359375 14.179688 -27.925781 15.046875 -27.0625 C 15.910156 -26.207031 16.34375 -24.9375 16.34375 -23.25 Z M 6.59375 -14.1875 L 10.109375 -14.1875 C 11.046875 -14.1875 11.515625 -14.65625 11.515625 -15.59375 L 11.515625 -22.265625 C 11.515625 -23.210938 11.046875 -23.6875 10.109375 -23.6875 L 6.59375 -23.6875 Z M 6.59375 -14.1875 "/></g></g></g><g fill="#2b2b2b" fill-opacity="1"><g transform="translate(222.148646, 200.999987)"><g><path d="M 14.140625 -28.359375 L 17.515625 -28.359375 C 18.054688 -28.359375 18.269531 -28.097656 18.15625 -27.578125 L 12.15625 -0.640625 C 12.0625 -0.210938 11.800781 0 11.375 0 L 7.828125 0 C 7.429688 0 7.175781 -0.210938 7.0625 -0.640625 L 1.09375 -27.578125 C 0.976562 -28.097656 1.191406 -28.359375 1.734375 -28.359375 L 5.109375 -28.359375 C 5.535156 -28.359375 5.796875 -28.144531 5.890625 -27.71875 L 9.609375 -8.71875 L 13.359375 -27.71875 C 13.484375 -28.144531 13.742188 -28.359375 14.140625 -28.359375 Z M 14.140625 -28.359375 "/></g></g></g><g fill="#2b2b2b" fill-opacity="1"><g transform="translate(248.915368, 200.999987)"><g><path d="M 2.34375 -28.359375 L 6.03125 -28.359375 C 6.40625 -28.359375 6.59375 -28.171875 6.59375 -27.796875 L 6.59375 -0.5625 C 6.59375 -0.1875 6.40625 0 6.03125 0 L 2.34375 0 C 1.957031 0 1.765625 -0.1875 1.765625 -0.5625 L 1.765625 -27.796875 C 1.765625 -28.171875 1.957031 -28.359375 2.34375 -28.359375 Z M 2.34375 -28.359375 "/></g></g></g></svg>