<svg xmlns="http://www.w3.org/2000/svg" xmlns:xlink="http://www.w3.org/1999/xlink" width="500" zoomAndPan="magnify" viewBox="0 0 375 374.999991" height="500" preserveAspectRatio="xMidYMid meet" version="1.0"><defs><g/></defs><rect x="-37.5" width="450" fill="#ffffff" y="-37.499999" height="449.999989" fill-opacity="1"/><rect x="-37.5" width="450" fill="#ffde59" y="-37.499999" height="449.999989" fill-opacity="1"/><g fill="#2b2b2b" fill-opacity="1"><g transform="translate(65.06354, 139.599226)"><g><path d="M 10.21875 -18.890625 C 16.820312 -18.890625 20.125 -15.738281 20.125 -9.4375 C 20.125 -3.144531 16.820312 0 10.21875 0 L 2.03125 0 L 2.03125 -18.890625 Z M 8.09375 -4.53125 L 10.109375 -4.53125 C 12.648438 -4.53125 13.921875 -5.894531 13.921875 -8.625 L 13.921875 -10.265625 C 13.921875 -12.992188 12.648438 -14.359375 10.109375 -14.359375 L 8.09375 -14.359375 Z M 8.09375 -4.53125 "/></g></g></g><g fill="#2b2b2b" fill-opacity="1"><g transform="translate(92.241687, 139.599226)"><g><path d="M 16.21875 0 L 13.78125 -11.5 L 13.671875 -11.5 L 11.234375 0 L 4.5625 0 L 0.140625 -18.890625 L 6.453125 -18.890625 L 8.625 -8.1875 L 8.734375 -8.1875 L 10.875 -18.890625 L 16.859375 -18.890625 L 19.140625 -8.1875 L 19.25 -8.1875 L 21.28125 -18.890625 L 27.3125 -18.890625 L 22.890625 0 Z M 16.21875 0 "/></g></g></g><g fill="#2b2b2b" fill-opacity="1"><g transform="translate(125.513781, 139.599226)"><g><path d="M 14.6875 0 L 13.890625 -2.65625 L 7.28125 -2.65625 L 6.484375 0 L 0.28125 0 L 7.171875 -18.890625 L 14.21875 -18.890625 L 21.109375 0 Z M 8.53125 -6.890625 L 12.625 -6.890625 L 10.65625 -13.609375 L 10.546875 -13.609375 Z M 8.53125 -6.890625 "/></g></g></g><g fill="#2b2b2b" fill-opacity="1"><g transform="translate(152.691926, 139.599226)"><g><path d="M 19.953125 -13.09375 C 19.953125 -11.9375 19.640625 -10.890625 19.015625 -9.953125 C 18.398438 -9.023438 17.5 -8.34375 16.3125 -7.90625 L 20.5 0 L 13.703125 0 L 10.34375 -6.890625 L 8.09375 -6.890625 L 8.09375 0 L 2.03125 0 L 2.03125 -18.890625 L 13.59375 -18.890625 C 14.945312 -18.890625 16.101562 -18.628906 17.0625 -18.109375 C 18.019531 -17.585938 18.738281 -16.878906 19.21875 -15.984375 C 19.707031 -15.097656 19.953125 -14.132812 19.953125 -13.09375 Z M 13.78125 -12.84375 C 13.78125 -13.34375 13.613281 -13.753906 13.28125 -14.078125 C 12.957031 -14.410156 12.554688 -14.578125 12.078125 -14.578125 L 8.09375 -14.578125 L 8.09375 -11.09375 L 12.078125 -11.09375 C 12.554688 -11.09375 12.957031 -11.257812 13.28125 -11.59375 C 13.613281 -11.9375 13.78125 -12.351562 13.78125 -12.84375 Z M 13.78125 -12.84375 "/></g></g></g><g fill="#2b2b2b" fill-opacity="1"><g transform="translate(179.870076, 139.599226)"><g><path d="M 14.828125 -18.890625 L 22.34375 -18.890625 L 15.5625 -11.125 L 22.484375 0 L 15.3125 0 L 11.390625 -6.921875 L 8.09375 -4.234375 L 8.09375 0 L 2.03125 0 L 2.03125 -18.890625 L 8.09375 -18.890625 L 8.09375 -10.8125 Z M 14.828125 -18.890625 "/></g></g></g><g fill="#2b2b2b" fill-opacity="1"><g transform="translate(208.557992, 139.599226)"><g><path d="M 14.6875 0 L 13.890625 -2.65625 L 7.28125 -2.65625 L 6.484375 0 L 0.28125 0 L 7.171875 -18.890625 L 14.21875 -18.890625 L 21.109375 0 Z M 8.53125 -6.890625 L 12.625 -6.890625 L 10.65625 -13.609375 L 10.546875 -13.609375 Z M 8.53125 -6.890625 "/></g></g></g><g fill="#2b2b2b" fill-opacity="1"><g transform="translate(235.736142, 139.599226)"><g><path d="M 10.21875 -18.890625 C 16.820312 -18.890625 20.125 -15.738281 20.125 -9.4375 C 20.125 -3.144531 16.820312 0 10.21875 0 L 2.03125 0 L 2.03125 -18.890625 Z M 8.09375 -4.53125 L 10.109375 -4.53125 C 12.648438 -4.53125 13.921875 -5.894531 13.921875 -8.625 L 13.921875 -10.265625 C 13.921875 -12.992188 12.648438 -14.359375 10.109375 -14.359375 L 8.09375 -14.359375 Z M 8.09375 -4.53125 "/></g></g></g><g fill="#2b2b2b" fill-opacity="1"><g transform="translate(262.914292, 139.599226)"><g><path d="M 14.6875 0 L 13.890625 -2.65625 L 7.28125 -2.65625 L 6.484375 0 L 0.28125 0 L 7.171875 -18.890625 L 14.21875 -18.890625 L 21.109375 0 Z M 8.53125 -6.890625 L 12.625 -6.890625 L 10.65625 -13.609375 L 10.546875 -13.609375 Z M 8.53125 -6.890625 "/></g></g></g><g fill="#2b2b2b" fill-opacity="1"><g transform="translate(290.092442, 139.599226)"><g><path d="M 9.96875 -19.21875 C 12.382812 -19.21875 14.367188 -18.726562 15.921875 -17.75 C 17.472656 -16.769531 18.269531 -15.316406 18.3125 -13.390625 L 18.3125 -13.0625 L 12.625 -13.0625 L 12.625 -13.171875 C 12.625 -13.722656 12.421875 -14.179688 12.015625 -14.546875 C 11.617188 -14.910156 11.007812 -15.09375 10.1875 -15.09375 C 9.382812 -15.09375 8.765625 -14.972656 8.328125 -14.734375 C 7.898438 -14.503906 7.6875 -14.210938 7.6875 -13.859375 C 7.6875 -13.367188 7.976562 -13.003906 8.5625 -12.765625 C 9.144531 -12.523438 10.085938 -12.28125 11.390625 -12.03125 C 12.910156 -11.71875 14.160156 -11.390625 15.140625 -11.046875 C 16.117188 -10.710938 16.972656 -10.160156 17.703125 -9.390625 C 18.441406 -8.617188 18.816406 -7.578125 18.828125 -6.265625 C 18.828125 -4.023438 18.070312 -2.363281 16.5625 -1.28125 C 15.050781 -0.207031 13.035156 0.328125 10.515625 0.328125 C 7.566406 0.328125 5.273438 -0.164062 3.640625 -1.15625 C 2.003906 -2.144531 1.1875 -3.890625 1.1875 -6.390625 L 6.921875 -6.390625 C 6.921875 -5.441406 7.164062 -4.804688 7.65625 -4.484375 C 8.15625 -4.171875 8.925781 -4.015625 9.96875 -4.015625 C 10.738281 -4.015625 11.375 -4.09375 11.875 -4.25 C 12.375 -4.414062 12.625 -4.753906 12.625 -5.265625 C 12.625 -5.722656 12.34375 -6.066406 11.78125 -6.296875 C 11.226562 -6.523438 10.320312 -6.769531 9.0625 -7.03125 C 7.519531 -7.351562 6.242188 -7.691406 5.234375 -8.046875 C 4.234375 -8.410156 3.359375 -9.003906 2.609375 -9.828125 C 1.859375 -10.648438 1.484375 -11.765625 1.484375 -13.171875 C 1.484375 -15.242188 2.28125 -16.769531 3.875 -17.75 C 5.476562 -18.726562 7.507812 -19.21875 9.96875 -19.21875 Z M 9.96875 -19.21875 "/></g></g></g><g fill="#2b2b2b" fill-opacity="1"><g transform="translate(62.048659, 177.380107)"><g><path d="M 9.96875 -19.21875 C 12.382812 -19.21875 14.367188 -18.726562 15.921875 -17.75 C 17.472656 -16.769531 18.269531 -15.316406 18.3125 -13.390625 L 18.3125 -13.0625 L 12.625 -13.0625 L 12.625 -13.171875 C 12.625 -13.722656 12.421875 -14.179688 12.015625 -14.546875 C 11.617188 -14.910156 11.007812 -15.09375 10.1875 -15.09375 C 9.382812 -15.09375 8.765625 -14.972656 8.328125 -14.734375 C 7.898438 -14.503906 7.6875 -14.210938 7.6875 -13.859375 C 7.6875 -13.367188 7.976562 -13.003906 8.5625 -12.765625 C 9.144531 -12.523438 10.085938 -12.28125 11.390625 -12.03125 C 12.910156 -11.71875 14.160156 -11.390625 15.140625 -11.046875 C 16.117188 -10.710938 16.972656 -10.160156 17.703125 -9.390625 C 18.441406 -8.617188 18.816406 -7.578125 18.828125 -6.265625 C 18.828125 -4.023438 18.070312 -2.363281 16.5625 -1.28125 C 15.050781 -0.207031 13.035156 0.328125 10.515625 0.328125 C 7.566406 0.328125 5.273438 -0.164062 3.640625 -1.15625 C 2.003906 -2.144531 1.1875 -3.890625 1.1875 -6.390625 L 6.921875 -6.390625 C 6.921875 -5.441406 7.164062 -4.804688 7.65625 -4.484375 C 8.15625 -4.171875 8.925781 -4.015625 9.96875 -4.015625 C 10.738281 -4.015625 11.375 -4.09375 11.875 -4.25 C 12.375 -4.414062 12.625 -4.753906 12.625 -5.265625 C 12.625 -5.722656 12.34375 -6.066406 11.78125 -6.296875 C 11.226562 -6.523438 10.320312 -6.769531 9.0625 -7.03125 C 7.519531 -7.351562 6.242188 -7.691406 5.234375 -8.046875 C 4.234375 -8.410156 3.359375 -9.003906 2.609375 -9.828125 C 1.859375 -10.648438 1.484375 -11.765625 1.484375 -13.171875 C 1.484375 -15.242188 2.28125 -16.769531 3.875 -17.75 C 5.476562 -18.726562 7.507812 -19.21875 9.96875 -19.21875 Z M 9.96875 -19.21875 "/></g></g></g><g fill="#2b2b2b" fill-opacity="1"><g transform="translate(87.689595, 177.380107)"><g><path d="M 14.765625 0 L 14.765625 -7.171875 L 8.09375 -7.171875 L 8.09375 0 L 2.03125 0 L 2.03125 -18.890625 L 8.09375 -18.890625 L 8.09375 -12 L 14.765625 -12 L 14.765625 -18.890625 L 20.84375 -18.890625 L 20.84375 0 Z M 14.765625 0 "/></g></g></g><g fill="#2b2b2b" fill-opacity="1"><g transform="translate(116.377509, 177.380107)"><g><path d="M 14.6875 0 L 13.890625 -2.65625 L 7.28125 -2.65625 L 6.484375 0 L 0.28125 0 L 7.171875 -18.890625 L 14.21875 -18.890625 L 21.109375 0 Z M 8.53125 -6.890625 L 12.625 -6.890625 L 10.65625 -13.609375 L 10.546875 -13.609375 Z M 8.53125 -6.890625 "/></g></g></g><g fill="#2b2b2b" fill-opacity="1"><g transform="translate(143.555653, 177.380107)"><g><path d="M 18.25 0 L 18.25 -6.8125 C 18.25 -7.65625 18.28125 -8.519531 18.34375 -9.40625 C 18.414062 -10.289062 18.488281 -11.035156 18.5625 -11.640625 C 18.632812 -12.242188 18.679688 -12.628906 18.703125 -12.796875 L 18.578125 -12.796875 L 15.09375 0 L 10.34375 0 L 6.828125 -12.765625 L 6.71875 -12.765625 C 6.738281 -12.597656 6.789062 -12.21875 6.875 -11.625 C 6.957031 -11.03125 7.035156 -10.289062 7.109375 -9.40625 C 7.179688 -8.519531 7.21875 -7.65625 7.21875 -6.8125 L 7.21875 0 L 1.640625 0 L 1.640625 -18.890625 L 10.21875 -18.890625 L 13.0625 -7.984375 L 13.171875 -7.984375 L 16 -18.890625 L 24.265625 -18.890625 L 24.265625 0 Z M 18.25 0 "/></g></g></g><g fill="#2b2b2b" fill-opacity="1"><g transform="translate(175.290538, 177.380107)"><g><path d="M 14.828125 -18.890625 L 22.34375 -18.890625 L 15.5625 -11.125 L 22.484375 0 L 15.3125 0 L 11.390625 -6.921875 L 8.09375 -4.234375 L 8.09375 0 L 2.03125 0 L 2.03125 -18.890625 L 8.09375 -18.890625 L 8.09375 -10.8125 Z M 14.828125 -18.890625 "/></g></g></g><g fill="#2b2b2b" fill-opacity="1"><g transform="translate(203.978455, 177.380107)"><g><path d="M 20.84375 -7.609375 C 20.84375 -5.023438 20.023438 -3.054688 18.390625 -1.703125 C 16.765625 -0.347656 14.453125 0.328125 11.453125 0.328125 C 8.453125 0.328125 6.128906 -0.347656 4.484375 -1.703125 C 2.847656 -3.054688 2.03125 -5.023438 2.03125 -7.609375 L 2.03125 -18.890625 L 8.09375 -18.890625 L 8.09375 -7.6875 C 8.09375 -6.625 8.375 -5.773438 8.9375 -5.140625 C 9.507812 -4.515625 10.335938 -4.203125 11.421875 -4.203125 C 12.503906 -4.203125 13.332031 -4.519531 13.90625 -5.15625 C 14.476562 -5.800781 14.765625 -6.644531 14.765625 -7.6875 L 14.765625 -18.890625 L 20.84375 -18.890625 Z M 20.84375 -7.609375 "/></g></g></g><g fill="#2b2b2b" fill-opacity="1"><g transform="translate(232.666371, 177.380107)"><g><path d="M 18.25 0 L 18.25 -6.8125 C 18.25 -7.65625 18.28125 -8.519531 18.34375 -9.40625 C 18.414062 -10.289062 18.488281 -11.035156 18.5625 -11.640625 C 18.632812 -12.242188 18.679688 -12.628906 18.703125 -12.796875 L 18.578125 -12.796875 L 15.09375 0 L 10.34375 0 L 6.828125 -12.765625 L 6.71875 -12.765625 C 6.738281 -12.597656 6.789062 -12.21875 6.875 -11.625 C 6.957031 -11.03125 7.035156 -10.289062 7.109375 -9.40625 C 7.179688 -8.519531 7.21875 -7.65625 7.21875 -6.8125 L 7.21875 0 L 1.640625 0 L 1.640625 -18.890625 L 10.21875 -18.890625 L 13.0625 -7.984375 L 13.171875 -7.984375 L 16 -18.890625 L 24.265625 -18.890625 L 24.265625 0 Z M 18.25 0 "/></g></g></g><g fill="#2b2b2b" fill-opacity="1"><g transform="translate(264.401246, 177.380107)"><g><path d="M 14.6875 0 L 13.890625 -2.65625 L 7.28125 -2.65625 L 6.484375 0 L 0.28125 0 L 7.171875 -18.890625 L 14.21875 -18.890625 L 21.109375 0 Z M 8.53125 -6.890625 L 12.625 -6.890625 L 10.65625 -13.609375 L 10.546875 -13.609375 Z M 8.53125 -6.890625 "/></g></g></g><g fill="#2b2b2b" fill-opacity="1"><g transform="translate(291.579396, 177.380107)"><g><path d="M 19.953125 -13.09375 C 19.953125 -11.9375 19.640625 -10.890625 19.015625 -9.953125 C 18.398438 -9.023438 17.5 -8.34375 16.3125 -7.90625 L 20.5 0 L 13.703125 0 L 10.34375 -6.890625 L 8.09375 -6.890625 L 8.09375 0 L 2.03125 0 L 2.03125 -18.890625 L 13.59375 -18.890625 C 14.945312 -18.890625 16.101562 -18.628906 17.0625 -18.109375 C 18.019531 -17.585938 18.738281 -16.878906 19.21875 -15.984375 C 19.707031 -15.097656 19.953125 -14.132812 19.953125 -13.09375 Z M 13.78125 -12.84375 C 13.78125 -13.34375 13.613281 -13.753906 13.28125 -14.078125 C 12.957031 -14.410156 12.554688 -14.578125 12.078125 -14.578125 L 8.09375 -14.578125 L 8.09375 -11.09375 L 12.078125 -11.09375 C 12.554688 -11.09375 12.957031 -11.257812 13.28125 -11.59375 C 13.613281 -11.9375 13.78125 -12.351562 13.78125 -12.84375 Z M 13.78125 -12.84375 "/></g></g></g><g fill="#2b2b2b" fill-opacity="1"><g transform="translate(92.397754, 215.160987)"><g><path d="M 12.90625 -14.0625 L 12.90625 0 L 6.828125 0 L 6.828125 -14.0625 L 0.625 -14.0625 L 0.625 -18.890625 L 19.078125 -18.890625 L 19.078125 -14.0625 Z M 12.90625 -14.0625 "/></g></g></g><g fill="#2b2b2b" fill-opacity="1"><g transform="translate(118.038689, 215.160987)"><g><path d="M 2.03125 -18.890625 L 18.359375 -18.890625 L 18.359375 -14.359375 L 8.09375 -14.359375 L 8.09375 -11.75 L 16.890625 -11.75 L 16.890625 -7.40625 L 8.09375 -7.40625 L 8.09375 -4.53125 L 18.5625 -4.53125 L 18.5625 0 L 2.03125 0 Z M 2.03125 -18.890625 "/></g></g></g><g fill="#2b2b2b" fill-opacity="1"><g transform="translate(143.679625, 215.160987)"><g><path d="M 21.359375 0 L 14 0 L 10.515625 -5.875 L 10.40625 -5.875 L 6.921875 0 L 0.109375 0 L 6.859375 -10 L 0.765625 -18.890625 L 8.09375 -18.890625 L 10.953125 -14.0625 L 11.0625 -14.0625 L 13.953125 -18.890625 L 20.734375 -18.890625 L 14.609375 -9.96875 Z M 21.359375 0 "/></g></g></g><g fill="#2b2b2b" fill-opacity="1"><g transform="translate(170.85777, 215.160987)"><g><path d="M 12.90625 -14.0625 L 12.90625 0 L 6.828125 0 L 6.828125 -14.0625 L 0.625 -14.0625 L 0.625 -18.890625 L 19.078125 -18.890625 L 19.078125 -14.0625 Z M 12.90625 -14.0625 "/></g></g></g><g fill="#2b2b2b" fill-opacity="1"><g transform="translate(196.498707, 215.160987)"><g><path d="M 2.3125 0 L 2.3125 -18.890625 L 8.375 -18.890625 L 8.375 0 Z M 2.3125 0 "/></g></g></g><g fill="#2b2b2b" fill-opacity="1"><g transform="translate(212.99873, 215.160987)"><g><path d="M 2.03125 -18.890625 L 8.09375 -18.890625 L 8.09375 -4.828125 L 17.796875 -4.828125 L 17.796875 0 L 2.03125 0 Z M 2.03125 -18.890625 "/></g></g></g><g fill="#2b2b2b" fill-opacity="1"><g transform="translate(237.129911, 215.160987)"><g><path d="M 2.03125 -18.890625 L 18.359375 -18.890625 L 18.359375 -14.359375 L 8.09375 -14.359375 L 8.09375 -11.75 L 16.890625 -11.75 L 16.890625 -7.40625 L 8.09375 -7.40625 L 8.09375 -4.53125 L 18.5625 -4.53125 L 18.5625 0 L 2.03125 0 Z M 2.03125 -18.890625 "/></g></g></g><g fill="#2b2b2b" fill-opacity="1"><g transform="translate(262.770849, 215.160987)"><g><path d="M 9.96875 -19.21875 C 12.382812 -19.21875 14.367188 -18.726562 15.921875 -17.75 C 17.472656 -16.769531 18.269531 -15.316406 18.3125 -13.390625 L 18.3125 -13.0625 L 12.625 -13.0625 L 12.625 -13.171875 C 12.625 -13.722656 12.421875 -14.179688 12.015625 -14.546875 C 11.617188 -14.910156 11.007812 -15.09375 10.1875 -15.09375 C 9.382812 -15.09375 8.765625 -14.972656 8.328125 -14.734375 C 7.898438 -14.503906 7.6875 -14.210938 7.6875 -13.859375 C 7.6875 -13.367188 7.976562 -13.003906 8.5625 -12.765625 C 9.144531 -12.523438 10.085938 -12.28125 11.390625 -12.03125 C 12.910156 -11.71875 14.160156 -11.390625 15.140625 -11.046875 C 16.117188 -10.710938 16.972656 -10.160156 17.703125 -9.390625 C 18.441406 -8.617188 18.816406 -7.578125 18.828125 -6.265625 C 18.828125 -4.023438 18.070312 -2.363281 16.5625 -1.28125 C 15.050781 -0.207031 13.035156 0.328125 10.515625 0.328125 C 7.566406 0.328125 5.273438 -0.164062 3.640625 -1.15625 C 2.003906 -2.144531 1.1875 -3.890625 1.1875 -6.390625 L 6.921875 -6.390625 C 6.921875 -5.441406 7.164062 -4.804688 7.65625 -4.484375 C 8.15625 -4.171875 8.925781 -4.015625 9.96875 -4.015625 C 10.738281 -4.015625 11.375 -4.09375 11.875 -4.25 C 12.375 -4.414062 12.625 -4.753906 12.625 -5.265625 C 12.625 -5.722656 12.34375 -6.066406 11.78125 -6.296875 C 11.226562 -6.523438 10.320312 -6.769531 9.0625 -7.03125 C 7.519531 -7.351562 6.242188 -7.691406 5.234375 -8.046875 C 4.234375 -8.410156 3.359375 -9.003906 2.609375 -9.828125 C 1.859375 -10.648438 1.484375 -11.765625 1.484375 -13.171875 C 1.484375 -15.242188 2.28125 -16.769531 3.875 -17.75 C 5.476562 -18.726562 7.507812 -19.21875 9.96875 -19.21875 Z M 9.96875 -19.21875 "/></g></g></g><g fill="#2b2b2b" fill-opacity="1"><g transform="translate(105.216267, 252.941868)"><g><path d="M 12.625 -18.890625 C 13.800781 -18.890625 14.84375 -18.617188 15.75 -18.078125 C 16.664062 -17.535156 17.378906 -16.789062 17.890625 -15.84375 C 18.410156 -14.90625 18.671875 -13.851562 18.671875 -12.6875 L 18.671875 -12.328125 C 18.671875 -11.148438 18.410156 -10.085938 17.890625 -9.140625 C 17.378906 -8.191406 16.664062 -7.445312 15.75 -6.90625 C 14.84375 -6.363281 13.800781 -6.09375 12.625 -6.09375 L 8.09375 -6.09375 L 8.09375 0 L 2.03125 0 L 2.03125 -18.890625 Z M 8.09375 -10.515625 L 10.59375 -10.515625 C 11.238281 -10.515625 11.71875 -10.675781 12.03125 -11 C 12.351562 -11.332031 12.515625 -11.785156 12.515625 -12.359375 L 12.515625 -12.578125 C 12.515625 -13.160156 12.351562 -13.609375 12.03125 -13.921875 C 11.71875 -14.242188 11.238281 -14.40625 10.59375 -14.40625 L 8.09375 -14.40625 Z M 8.09375 -10.515625 "/></g></g></g><g fill="#2b2b2b" fill-opacity="1"><g transform="translate(130.857202, 252.941868)"><g><path d="M 7.171875 0 L 0.46875 -18.890625 L 6.953125 -18.890625 L 10.734375 -6.265625 L 10.84375 -6.265625 L 14.65625 -18.890625 L 20.859375 -18.890625 L 14.1875 0 Z M 7.171875 0 "/></g></g></g><g fill="#2b2b2b" fill-opacity="1"><g transform="translate(158.03535, 252.941868)"><g><path d="M 12.90625 -14.0625 L 12.90625 0 L 6.828125 0 L 6.828125 -14.0625 L 0.625 -14.0625 L 0.625 -18.890625 L 19.078125 -18.890625 L 19.078125 -14.0625 Z M 12.90625 -14.0625 "/></g></g></g><g fill="#2b2b2b" fill-opacity="1"><g transform="translate(183.676283, 252.941868)"><g/></g></g><g fill="#2b2b2b" fill-opacity="1"><g transform="translate(198.639093, 252.941868)"><g><path d="M 2.03125 -18.890625 L 8.09375 -18.890625 L 8.09375 -4.828125 L 17.796875 -4.828125 L 17.796875 0 L 2.03125 0 Z M 2.03125 -18.890625 "/></g></g></g><g fill="#2b2b2b" fill-opacity="1"><g transform="translate(222.770275, 252.941868)"><g><path d="M 12.90625 -14.0625 L 12.90625 0 L 6.828125 0 L 6.828125 -14.0625 L 0.625 -14.0625 L 0.625 -18.890625 L 19.078125 -18.890625 L 19.078125 -14.0625 Z M 12.90625 -14.0625 "/></g></g></g><g fill="#2b2b2b" fill-opacity="1"><g transform="translate(248.411212, 252.941868)"><g><path d="M 10.21875 -18.890625 C 16.820312 -18.890625 20.125 -15.738281 20.125 -9.4375 C 20.125 -3.144531 16.820312 0 10.21875 0 L 2.03125 0 L 2.03125 -18.890625 Z M 8.09375 -4.53125 L 10.109375 -4.53125 C 12.648438 -4.53125 13.921875 -5.894531 13.921875 -8.625 L 13.921875 -10.265625 C 13.921875 -12.992188 12.648438 -14.359375 10.109375 -14.359375 L 8.09375 -14.359375 Z M 8.09375 -4.53125 "/></g></g></g></svg>