<svg xmlns="http://www.w3.org/2000/svg" xmlns:xlink="http://www.w3.org/1999/xlink" width="500" zoomAndPan="magnify" viewBox="0 0 375 374.999991" height="500" preserveAspectRatio="xMidYMid meet" version="1.0"><defs><g/></defs><rect x="-37.5" width="450" fill="#ffffff" y="-37.499999" height="449.999989" fill-opacity="1"/><rect x="-37.5" width="450" fill="#ffffff" y="-37.499999" height="449.999989" fill-opacity="1"/><g fill="#2b2b2b" fill-opacity="1"><g transform="translate(85.447983, 200.999987)"><g><path d="M 1.765625 -5.109375 L 1.765625 -23.25 C 1.765625 -24.9375 2.203125 -26.207031 3.078125 -27.0625 C 3.953125 -27.925781 5.21875 -28.359375 6.875 -28.359375 L 11.5625 -28.359375 C 13.21875 -28.359375 14.476562 -27.925781 15.34375 -27.0625 C 16.21875 -26.207031 16.65625 -24.9375 16.65625 -23.25 L 16.65625 -19.5625 C 16.65625 -19.1875 16.46875 -19 16.09375 -19 L 12.546875 -19 C 12.171875 -19 11.984375 -19.1875 11.984375 -19.5625 L 11.984375 -22.265625 C 11.984375 -23.210938 11.507812 -23.6875 10.5625 -23.6875 L 8.015625 -23.6875 C 7.066406 -23.6875 6.59375 -23.210938 6.59375 -22.265625 L 6.59375 -6.09375 C 6.59375 -5.15625 7.066406 -4.6875 8.015625 -4.6875 L 10.5625 -4.6875 C 11.507812 -4.6875 11.984375 -5.15625 11.984375 -6.09375 L 11.984375 -10.84375 L 10.140625 -10.84375 C 9.765625 -10.84375 9.578125 -11.035156 9.578125 -11.421875 L 9.578125 -14.96875 C 9.578125 -15.34375 9.765625 -15.53125 10.140625 -15.53125 L 16.09375 -15.53125 C 16.46875 -15.53125 16.65625 -15.34375 16.65625 -14.96875 L 16.65625 -5.109375 C 16.65625 -3.453125 16.21875 -2.1875 15.34375 -1.3125 C 14.476562 -0.4375 13.21875 0 11.5625 0 L 6.875 0 C 5.21875 0 3.953125 -0.4375 3.078125 -1.3125 C 2.203125 -2.1875 1.765625 -3.453125 1.765625 -5.109375 Z M 1.765625 -5.109375 "/></g></g></g><g fill="#2b2b2b" fill-opacity="1"><g transform="translate(111.399379, 200.999987)"><g><path d="M 18.859375 0 L 15.109375 0 C 14.796875 0 14.601562 -0.164062 14.53125 -0.5 L 13.546875 -5.671875 L 7.234375 -5.671875 L 6.28125 -0.5 C 6.207031 -0.164062 6.015625 0 5.703125 0 L 1.921875 0 C 1.492188 0 1.335938 -0.203125 1.453125 -0.609375 L 7.34375 -27.859375 C 7.40625 -28.191406 7.601562 -28.359375 7.9375 -28.359375 L 12.875 -28.359375 C 13.195312 -28.359375 13.394531 -28.191406 13.46875 -27.859375 L 19.359375 -0.609375 C 19.429688 -0.203125 19.265625 0 18.859375 0 Z M 12.65625 -9.78125 L 10.390625 -22.15625 L 8.125 -9.78125 Z M 12.65625 -9.78125 "/></g></g></g><g fill="#2b2b2b" fill-opacity="1"><g transform="translate(139.690417, 200.999987)"><g><path d="M 12.65625 -28.359375 L 16.34375 -28.359375 C 16.71875 -28.359375 16.90625 -28.171875 16.90625 -27.796875 L 16.90625 -0.5625 C 16.90625 -0.1875 16.71875 0 16.34375 0 L 12.828125 0 C 12.503906 0 12.296875 -0.148438 12.203125 -0.453125 L 6.765625 -15.59375 L 6.59375 -15.59375 L 6.59375 -0.5625 C 6.59375 -0.1875 6.40625 0 6.03125 0 L 2.34375 0 C 1.957031 0 1.765625 -0.1875 1.765625 -0.5625 L 1.765625 -27.796875 C 1.765625 -28.171875 1.957031 -28.359375 2.34375 -28.359375 L 5.84375 -28.359375 C 6.175781 -28.359375 6.390625 -28.207031 6.484375 -27.90625 L 11.875 -12.828125 L 12.09375 -12.828125 L 12.09375 -27.796875 C 12.09375 -28.171875 12.28125 -28.359375 12.65625 -28.359375 Z M 12.65625 -28.359375 "/></g></g></g><g fill="#2b2b2b" fill-opacity="1"><g transform="translate(165.889952, 200.999987)"><g><path d="M 1.765625 -0.5625 L 1.765625 -27.796875 C 1.765625 -28.171875 1.957031 -28.359375 2.34375 -28.359375 L 10.84375 -28.359375 C 12.519531 -28.359375 13.789062 -27.921875 14.65625 -27.046875 C 15.519531 -26.171875 15.953125 -24.894531 15.953125 -23.21875 L 15.953125 -5.109375 C 15.953125 -3.453125 15.519531 -2.1875 14.65625 -1.3125 C 13.789062 -0.4375 12.519531 0 10.84375 0 L 2.34375 0 C 1.957031 0 1.765625 -0.1875 1.765625 -0.5625 Z M 6.59375 -4.6875 L 9.859375 -4.6875 C 10.804688 -4.6875 11.28125 -5.15625 11.28125 -6.09375 L 11.28125 -22.234375 C 11.28125 -23.203125 10.804688 -23.6875 9.859375 -23.6875 L 6.59375 -23.6875 Z M 6.59375 -4.6875 "/></g></g></g><g fill="#2b2b2b" fill-opacity="1"><g transform="translate(191.132367, 200.999987)"><g><path d="M 11.125 -16.515625 L 11.125 -27.796875 C 11.125 -28.171875 11.316406 -28.359375 11.703125 -28.359375 L 15.34375 -28.359375 C 15.75 -28.359375 15.953125 -28.171875 15.953125 -27.796875 L 15.953125 -0.5625 C 15.953125 -0.1875 15.75 0 15.34375 0 L 11.703125 0 C 11.316406 0 11.125 -0.1875 11.125 -0.5625 L 11.125 -11.84375 L 6.59375 -11.84375 L 6.59375 -0.5625 C 6.59375 -0.1875 6.40625 0 6.03125 0 L 2.375 0 C 1.96875 0 1.765625 -0.1875 1.765625 -0.5625 L 1.765625 -27.796875 C 1.765625 -28.171875 1.96875 -28.359375 2.375 -28.359375 L 6.03125 -28.359375 C 6.40625 -28.359375 6.59375 -28.171875 6.59375 -27.796875 L 6.59375 -16.515625 Z M 11.125 -16.515625 "/></g></g></g><g fill="#2b2b2b" fill-opacity="1"><g transform="translate(216.374781, 200.999987)"><g><path d="M 18.859375 0 L 15.109375 0 C 14.796875 0 14.601562 -0.164062 14.53125 -0.5 L 13.546875 -5.671875 L 7.234375 -5.671875 L 6.28125 -0.5 C 6.207031 -0.164062 6.015625 0 5.703125 0 L 1.921875 0 C 1.492188 0 1.335938 -0.203125 1.453125 -0.609375 L 7.34375 -27.859375 C 7.40625 -28.191406 7.601562 -28.359375 7.9375 -28.359375 L 12.875 -28.359375 C 13.195312 -28.359375 13.394531 -28.191406 13.46875 -27.859375 L 19.359375 -0.609375 C 19.429688 -0.203125 19.265625 0 18.859375 0 Z M 12.65625 -9.78125 L 10.390625 -22.15625 L 8.125 -9.78125 Z M 12.65625 -9.78125 "/></g></g></g><g fill="#2b2b2b" fill-opacity="1"><g transform="translate(244.665822, 200.999987)"><g><path d="M 16.34375 -23.25 L 16.34375 -14.609375 C 16.34375 -12.242188 15.476562 -10.679688 13.75 -9.921875 L 16.203125 -0.640625 C 16.316406 -0.210938 16.148438 0 15.703125 0 L 12.015625 0 C 11.679688 0 11.484375 -0.164062 11.421875 -0.5 L 9.046875 -9.5 L 6.59375 -9.5 L 6.59375 -0.5625 C 6.59375 -0.1875 6.40625 0 6.03125 0 L 2.34375 0 C 1.957031 0 1.765625 -0.1875 1.765625 -0.5625 L 1.765625 -27.796875 C 1.765625 -28.171875 1.957031 -28.359375 2.34375 -28.359375 L 11.234375 -28.359375 C 12.910156 -28.359375 14.179688 -27.925781 15.046875 -27.0625 C 15.910156 -26.207031 16.34375 -24.9375 16.34375 -23.25 Z M 6.59375 -14.1875 L 10.109375 -14.1875 C 11.046875 -14.1875 11.515625 -14.65625 11.515625 -15.59375 L 11.515625 -22.265625 C 11.515625 -23.210938 11.046875 -23.6875 10.109375 -23.6875 L 6.59375 -23.6875 Z M 6.59375 -14.1875 "/></g></g></g><g fill="#2b2b2b" fill-opacity="1"><g transform="translate(270.298171, 200.999987)"><g><path d="M 14.140625 -28.359375 L 17.515625 -28.359375 C 18.054688 -28.359375 18.269531 -28.097656 18.15625 -27.578125 L 12.15625 -0.640625 C 12.0625 -0.210938 11.800781 0 11.375 0 L 7.828125 0 C 7.429688 0 7.175781 -0.210938 7.0625 -0.640625 L 1.09375 -27.578125 C 0.976562 -28.097656 1.191406 -28.359375 1.734375 -28.359375 L 5.109375 -28.359375 C 5.535156 -28.359375 5.796875 -28.144531 5.890625 -27.71875 L 9.609375 -8.71875 L 13.359375 -27.71875 C 13.484375 -28.144531 13.742188 -28.359375 14.140625 -28.359375 Z M 14.140625 -28.359375 "/></g></g></g></svg>