<svg xmlns="http://www.w3.org/2000/svg" xmlns:xlink="http://www.w3.org/1999/xlink" width="500" zoomAndPan="magnify" viewBox="0 0 375 374.999991" height="500" preserveAspectRatio="xMidYMid meet" version="1.0"><defs><g/></defs><rect x="-37.5" width="450" fill="#ffffff" y="-37.499999" height="449.999989" fill-opacity="1"/><rect x="-37.5" width="450" fill="#c1ff72" y="-37.499999" height="449.999989" fill-opacity="1"/><g fill="#2b2b2b" fill-opacity="1"><g transform="translate(73.157366, 170.249989)"><g><path d="M 16.234375 0 L 9.71875 0 L 9.390625 -4.46875 L 7.015625 -4.46875 L 6.703125 0 L 0.171875 0 L 3.375 -25.3125 L 12.765625 -25.3125 Z M 7.015625 -8.9375 L 9.28125 -8.9375 L 8.15625 -20.84375 L 8.078125 -20.84375 Z M 7.015625 -8.9375 "/></g></g></g><g fill="#2b2b2b" fill-opacity="1"><g transform="translate(97.088159, 170.249989)"><g><path d="M 7.625 -25.84375 C 12.414062 -25.84375 14.8125 -24.035156 14.8125 -20.421875 L 14.8125 -17.90625 L 8.96875 -17.90625 L 8.96875 -20.109375 C 8.96875 -21.234375 8.539062 -21.796875 7.6875 -21.796875 C 6.957031 -21.796875 6.59375 -21.28125 6.59375 -20.25 L 6.59375 -18.96875 C 6.59375 -18.5 6.757812 -18.054688 7.09375 -17.640625 C 7.425781 -17.222656 7.78125 -16.882812 8.15625 -16.625 C 8.53125 -16.363281 9.132812 -15.988281 9.96875 -15.5 C 10.976562 -14.882812 11.84375 -14.28125 12.5625 -13.6875 C 13.289062 -13.09375 13.921875 -12.328125 14.453125 -11.390625 C 14.984375 -10.460938 15.25 -9.359375 15.25 -8.078125 L 15.25 -5.8125 C 15.25 -3.425781 14.566406 -1.769531 13.203125 -0.84375 C 11.847656 0.0703125 9.988281 0.53125 7.625 0.53125 C 5.019531 0.53125 3.1875 0.0078125 2.125 -1.03125 C 1.0625 -2.070312 0.53125 -3.675781 0.53125 -5.84375 L 0.53125 -9.21875 L 6.625 -9.21875 L 6.625 -5.03125 C 6.625 -4.019531 6.992188 -3.515625 7.734375 -3.515625 C 8.128906 -3.515625 8.425781 -3.671875 8.625 -3.984375 C 8.832031 -4.304688 8.9375 -4.847656 8.9375 -5.609375 L 8.9375 -6.953125 C 8.9375 -7.585938 8.765625 -8.148438 8.421875 -8.640625 C 8.078125 -9.140625 7.695312 -9.539062 7.28125 -9.84375 C 6.875 -10.15625 6.289062 -10.550781 5.53125 -11.03125 C 4.507812 -11.644531 3.660156 -12.222656 2.984375 -12.765625 C 2.316406 -13.304688 1.734375 -14.015625 1.234375 -14.890625 C 0.742188 -15.765625 0.5 -16.804688 0.5 -18.015625 L 0.5 -19.71875 C 0.5 -23.800781 2.875 -25.84375 7.625 -25.84375 Z M 7.625 -25.84375 "/></g></g></g><g fill="#2b2b2b" fill-opacity="1"><g transform="translate(120.345422, 170.249989)"><g><path d="M 11.171875 -10.53125 L 11.234375 -10.53125 L 12.765625 -25.3125 L 21.5625 -25.3125 L 21.5625 0 L 16.03125 0 L 16.03125 -18.796875 L 15.953125 -18.796875 L 13.21875 0 L 9.109375 0 L 6.375 -18.796875 L 6.3125 -18.796875 L 6.3125 0 L 0.78125 0 L 0.78125 -25.3125 L 9.46875 -25.3125 Z M 11.171875 -10.53125 "/></g></g></g><g fill="#2b2b2b" fill-opacity="1"><g transform="translate(150.196218, 170.249989)"><g><path d="M 7.203125 0 L 0.671875 0 L 0.671875 -25.3125 L 7.203125 -25.3125 Z M 7.203125 0 "/></g></g></g><g fill="#2b2b2b" fill-opacity="1"><g transform="translate(165.583771, 170.249989)"><g><path d="M 14.328125 -20.203125 L 10.453125 -20.203125 L 10.453125 0 L 3.9375 0 L 3.9375 -20.203125 L 0.078125 -20.203125 L 0.078125 -25.3125 L 14.328125 -25.3125 Z M 14.328125 -20.203125 "/></g></g></g><g fill="#2b2b2b" fill-opacity="1"><g transform="translate(187.493965, 170.249989)"><g><path d="M 16.234375 0 L 9.71875 0 L 9.390625 -4.46875 L 7.015625 -4.46875 L 6.703125 0 L 0.171875 0 L 3.375 -25.3125 L 12.765625 -25.3125 Z M 7.015625 -8.9375 L 9.28125 -8.9375 L 8.15625 -20.84375 L 8.078125 -20.84375 Z M 7.015625 -8.9375 "/></g></g></g><g fill="#2b2b2b" fill-opacity="1"><g transform="translate(211.424761, 170.249989)"><g/></g></g><g fill="#2b2b2b" fill-opacity="1"><g transform="translate(227.450402, 170.249989)"><g><path d="M 7.625 -25.84375 C 12.414062 -25.84375 14.8125 -24.035156 14.8125 -20.421875 L 14.8125 -17.90625 L 8.96875 -17.90625 L 8.96875 -20.109375 C 8.96875 -21.234375 8.539062 -21.796875 7.6875 -21.796875 C 6.957031 -21.796875 6.59375 -21.28125 6.59375 -20.25 L 6.59375 -18.96875 C 6.59375 -18.5 6.757812 -18.054688 7.09375 -17.640625 C 7.425781 -17.222656 7.78125 -16.882812 8.15625 -16.625 C 8.53125 -16.363281 9.132812 -15.988281 9.96875 -15.5 C 10.976562 -14.882812 11.84375 -14.28125 12.5625 -13.6875 C 13.289062 -13.09375 13.921875 -12.328125 14.453125 -11.390625 C 14.984375 -10.460938 15.25 -9.359375 15.25 -8.078125 L 15.25 -5.8125 C 15.25 -3.425781 14.566406 -1.769531 13.203125 -0.84375 C 11.847656 0.0703125 9.988281 0.53125 7.625 0.53125 C 5.019531 0.53125 3.1875 0.0078125 2.125 -1.03125 C 1.0625 -2.070312 0.53125 -3.675781 0.53125 -5.84375 L 0.53125 -9.21875 L 6.625 -9.21875 L 6.625 -5.03125 C 6.625 -4.019531 6.992188 -3.515625 7.734375 -3.515625 C 8.128906 -3.515625 8.425781 -3.671875 8.625 -3.984375 C 8.832031 -4.304688 8.9375 -4.847656 8.9375 -5.609375 L 8.9375 -6.953125 C 8.9375 -7.585938 8.765625 -8.148438 8.421875 -8.640625 C 8.078125 -9.140625 7.695312 -9.539062 7.28125 -9.84375 C 6.875 -10.15625 6.289062 -10.550781 5.53125 -11.03125 C 4.507812 -11.644531 3.660156 -12.222656 2.984375 -12.765625 C 2.316406 -13.304688 1.734375 -14.015625 1.234375 -14.890625 C 0.742188 -15.765625 0.5 -16.804688 0.5 -18.015625 L 0.5 -19.71875 C 0.5 -23.800781 2.875 -25.84375 7.625 -25.84375 Z M 7.625 -25.84375 "/></g></g></g><g fill="#2b2b2b" fill-opacity="1"><g transform="translate(250.707667, 170.249989)"><g><path d="M 7.203125 0 L 0.671875 0 L 0.671875 -25.3125 L 7.203125 -25.3125 Z M 7.203125 0 "/></g></g></g><g fill="#2b2b2b" fill-opacity="1"><g transform="translate(266.09522, 170.249989)"><g><path d="M 7.296875 -4.890625 L 11.625 -4.890625 L 11.625 0 L 0.78125 0 L 0.78125 -25.3125 L 7.296875 -25.3125 Z M 7.296875 -4.890625 "/></g></g></g><g fill="#2b2b2b" fill-opacity="1"><g transform="translate(285.417629, 170.249989)"><g><path d="M 7.09375 -15.390625 L 7.15625 -15.390625 L 10.109375 -25.3125 L 16.3125 -25.3125 L 12.484375 -14.078125 L 16.84375 0 L 9.890625 0 L 7.15625 -11.125 L 7.09375 -11.125 L 7.09375 0 L 0.78125 0 L 0.78125 -25.3125 L 7.09375 -25.3125 Z M 7.09375 -15.390625 "/></g></g></g><g fill="#2b2b2b" fill-opacity="1"><g transform="translate(79.813616, 219.749986)"><g><path d="M 16.234375 0 L 9.71875 0 L 9.390625 -4.46875 L 7.015625 -4.46875 L 6.703125 0 L 0.171875 0 L 3.375 -25.3125 L 12.765625 -25.3125 Z M 7.015625 -8.9375 L 9.28125 -8.9375 L 8.15625 -20.84375 L 8.078125 -20.84375 Z M 7.015625 -8.9375 "/></g></g></g><g fill="#2b2b2b" fill-opacity="1"><g transform="translate(103.744409, 219.749986)"><g><path d="M 10.03125 -12.734375 L 10.109375 -12.734375 L 10.109375 -25.3125 L 15.640625 -25.3125 L 15.640625 0 L 10.109375 0 L 6.421875 -14.140625 L 6.3125 -14.140625 L 6.3125 0 L 0.78125 0 L 0.78125 -25.3125 L 6.3125 -25.3125 Z M 10.03125 -12.734375 "/></g></g></g><g fill="#2b2b2b" fill-opacity="1"><g transform="translate(127.675202, 219.749986)"><g><path d="M 16.3125 -19 L 16.3125 -4.75 C 16.3125 -3.1875 15.789062 -2.003906 14.75 -1.203125 C 13.707031 -0.398438 12.347656 0 10.671875 0 L 0.78125 0 L 0.78125 -25.3125 L 9.25 -25.3125 C 10.8125 -25.3125 12.097656 -25.140625 13.109375 -24.796875 C 14.128906 -24.453125 14.914062 -23.816406 15.46875 -22.890625 C 16.03125 -21.972656 16.3125 -20.675781 16.3125 -19 Z M 9.78125 -6.140625 L 9.78125 -19.1875 C 9.78125 -19.65625 9.644531 -20.082031 9.375 -20.46875 C 9.101562 -20.863281 8.753906 -21.0625 8.328125 -21.0625 L 7.296875 -21.0625 L 7.296875 -4.25 L 8.328125 -4.25 C 8.753906 -4.25 9.101562 -4.4375 9.375 -4.8125 C 9.644531 -5.195312 9.78125 -5.640625 9.78125 -6.140625 Z M 9.78125 -6.140625 "/></g></g></g><g fill="#2b2b2b" fill-opacity="1"><g transform="translate(152.279522, 219.749986)"><g/></g></g><g fill="#2b2b2b" fill-opacity="1"><g transform="translate(168.305163, 219.749986)"><g><path d="M 7.625 -25.84375 C 12.414062 -25.84375 14.8125 -24.035156 14.8125 -20.421875 L 14.8125 -17.90625 L 8.96875 -17.90625 L 8.96875 -20.109375 C 8.96875 -21.234375 8.539062 -21.796875 7.6875 -21.796875 C 6.957031 -21.796875 6.59375 -21.28125 6.59375 -20.25 L 6.59375 -18.96875 C 6.59375 -18.5 6.757812 -18.054688 7.09375 -17.640625 C 7.425781 -17.222656 7.78125 -16.882812 8.15625 -16.625 C 8.53125 -16.363281 9.132812 -15.988281 9.96875 -15.5 C 10.976562 -14.882812 11.84375 -14.28125 12.5625 -13.6875 C 13.289062 -13.09375 13.921875 -12.328125 14.453125 -11.390625 C 14.984375 -10.460938 15.25 -9.359375 15.25 -8.078125 L 15.25 -5.8125 C 15.25 -3.425781 14.566406 -1.769531 13.203125 -0.84375 C 11.847656 0.0703125 9.988281 0.53125 7.625 0.53125 C 5.019531 0.53125 3.1875 0.0078125 2.125 -1.03125 C 1.0625 -2.070312 0.53125 -3.675781 0.53125 -5.84375 L 0.53125 -9.21875 L 6.625 -9.21875 L 6.625 -5.03125 C 6.625 -4.019531 6.992188 -3.515625 7.734375 -3.515625 C 8.128906 -3.515625 8.425781 -3.671875 8.625 -3.984375 C 8.832031 -4.304688 8.9375 -4.847656 8.9375 -5.609375 L 8.9375 -6.953125 C 8.9375 -7.585938 8.765625 -8.148438 8.421875 -8.640625 C 8.078125 -9.140625 7.695312 -9.539062 7.28125 -9.84375 C 6.875 -10.15625 6.289062 -10.550781 5.53125 -11.03125 C 4.507812 -11.644531 3.660156 -12.222656 2.984375 -12.765625 C 2.316406 -13.304688 1.734375 -14.015625 1.234375 -14.890625 C 0.742188 -15.765625 0.5 -16.804688 0.5 -18.015625 L 0.5 -19.71875 C 0.5 -23.800781 2.875 -25.84375 7.625 -25.84375 Z M 7.625 -25.84375 "/></g></g></g><g fill="#2b2b2b" fill-opacity="1"><g transform="translate(191.562429, 219.749986)"><g><path d="M 16.234375 0 L 9.71875 0 L 9.390625 -4.46875 L 7.015625 -4.46875 L 6.703125 0 L 0.171875 0 L 3.375 -25.3125 L 12.765625 -25.3125 Z M 7.015625 -8.9375 L 9.28125 -8.9375 L 8.15625 -20.84375 L 8.078125 -20.84375 Z M 7.015625 -8.9375 "/></g></g></g><g fill="#2b2b2b" fill-opacity="1"><g transform="translate(215.493224, 219.749986)"><g><path d="M 15.390625 -20.3125 L 15.390625 -17.765625 C 15.390625 -16.367188 15.066406 -15.320312 14.421875 -14.625 C 13.785156 -13.925781 12.832031 -13.53125 11.5625 -13.4375 L 11.5625 -13.359375 C 12.957031 -13.265625 13.984375 -12.863281 14.640625 -12.15625 C 15.304688 -11.445312 15.640625 -10.394531 15.640625 -9 L 15.640625 0 L 9.53125 0 L 9.53125 -9.71875 C 9.53125 -11.113281 8.960938 -11.8125 7.828125 -11.8125 C 7.566406 -11.8125 7.320312 -11.773438 7.09375 -11.703125 L 7.09375 0 L 0.78125 0 L 0.78125 -25.3125 L 8.40625 -25.3125 C 9.914062 -25.3125 11.15625 -25.195312 12.125 -24.96875 C 13.09375 -24.75 13.878906 -24.28125 14.484375 -23.5625 C 15.085938 -22.84375 15.390625 -21.757812 15.390625 -20.3125 Z M 7.546875 -15.640625 C 8.304688 -15.640625 8.828125 -15.804688 9.109375 -16.140625 C 9.390625 -16.484375 9.53125 -16.882812 9.53125 -17.34375 L 9.53125 -19.5625 C 9.53125 -19.988281 9.390625 -20.378906 9.109375 -20.734375 C 8.828125 -21.085938 8.320312 -21.265625 7.59375 -21.265625 L 7.09375 -21.265625 L 7.09375 -15.640625 Z M 7.546875 -15.640625 "/></g></g></g><g fill="#2b2b2b" fill-opacity="1"><g transform="translate(239.42402, 219.749986)"><g><path d="M 11.8125 -20.203125 L 7.296875 -20.203125 L 7.296875 -15.5625 L 11.515625 -15.5625 L 11.515625 -10.671875 L 7.296875 -10.671875 L 7.296875 -5.109375 L 12.15625 -5.109375 L 12.15625 0 L 0.78125 0 L 0.78125 -25.3125 L 11.8125 -25.3125 Z M 11.8125 -20.203125 "/></g></g></g><g fill="#2b2b2b" fill-opacity="1"><g transform="translate(259.41996, 219.749986)"><g><path d="M 11.8125 -20.203125 L 7.296875 -20.203125 L 7.296875 -15.5625 L 11.515625 -15.5625 L 11.515625 -10.671875 L 7.296875 -10.671875 L 7.296875 -5.109375 L 12.15625 -5.109375 L 12.15625 0 L 0.78125 0 L 0.78125 -25.3125 L 11.8125 -25.3125 Z M 11.8125 -20.203125 "/></g></g></g><g fill="#2b2b2b" fill-opacity="1"><g transform="translate(279.415889, 219.749986)"><g><path d="M 7.625 -25.84375 C 12.414062 -25.84375 14.8125 -24.035156 14.8125 -20.421875 L 14.8125 -17.90625 L 8.96875 -17.90625 L 8.96875 -20.109375 C 8.96875 -21.234375 8.539062 -21.796875 7.6875 -21.796875 C 6.957031 -21.796875 6.59375 -21.28125 6.59375 -20.25 L 6.59375 -18.96875 C 6.59375 -18.5 6.757812 -18.054688 7.09375 -17.640625 C 7.425781 -17.222656 7.78125 -16.882812 8.15625 -16.625 C 8.53125 -16.363281 9.132812 -15.988281 9.96875 -15.5 C 10.976562 -14.882812 11.84375 -14.28125 12.5625 -13.6875 C 13.289062 -13.09375 13.921875 -12.328125 14.453125 -11.390625 C 14.984375 -10.460938 15.25 -9.359375 15.25 -8.078125 L 15.25 -5.8125 C 15.25 -3.425781 14.566406 -1.769531 13.203125 -0.84375 C 11.847656 0.0703125 9.988281 0.53125 7.625 0.53125 C 5.019531 0.53125 3.1875 0.0078125 2.125 -1.03125 C 1.0625 -2.070312 0.53125 -3.675781 0.53125 -5.84375 L 0.53125 -9.21875 L 6.625 -9.21875 L 6.625 -5.03125 C 6.625 -4.019531 6.992188 -3.515625 7.734375 -3.515625 C 8.128906 -3.515625 8.425781 -3.671875 8.625 -3.984375 C 8.832031 -4.304688 8.9375 -4.847656 8.9375 -5.609375 L 8.9375 -6.953125 C 8.9375 -7.585938 8.765625 -8.148438 8.421875 -8.640625 C 8.078125 -9.140625 7.695312 -9.539062 7.28125 -9.84375 C 6.875 -10.15625 6.289062 -10.550781 5.53125 -11.03125 C 4.507812 -11.644531 3.660156 -12.222656 2.984375 -12.765625 C 2.316406 -13.304688 1.734375 -14.015625 1.234375 -14.890625 C 0.742188 -15.765625 0.5 -16.804688 0.5 -18.015625 L 0.5 -19.71875 C 0.5 -23.800781 2.875 -25.84375 7.625 -25.84375 Z M 7.625 -25.84375 "/></g></g></g></svg>