<svg xmlns="http://www.w3.org/2000/svg" xmlns:xlink="http://www.w3.org/1999/xlink" width="500" zoomAndPan="magnify" viewBox="0 0 375 374.999991" height="500" preserveAspectRatio="xMidYMid meet" version="1.0"><defs><g/></defs><rect x="-37.5" width="450" fill="#ffffff" y="-37.499999" height="449.999989" fill-opacity="1"/><rect x="-37.5" width="450" fill="#ff914d" y="-37.499999" height="449.999989" fill-opacity="1"/><g fill="#2b2b2b" fill-opacity="1"><g transform="translate(75.196428, 170.249989)"><g><path d="M 9.828125 -25.3125 L 9.828125 -4.359375 C 9.828125 -3.128906 9.414062 -2.09375 8.59375 -1.25 C 7.78125 -0.414062 6.570312 0 4.96875 0 L 0.671875 0 L 0.671875 -4.53125 C 1.097656 -4.488281 1.414062 -4.46875 1.625 -4.46875 C 2.175781 -4.46875 2.59375 -4.609375 2.875 -4.890625 C 3.15625 -5.171875 3.296875 -5.664062 3.296875 -6.375 L 3.296875 -25.3125 Z M 9.828125 -25.3125 "/></g></g></g><g fill="#2b2b2b" fill-opacity="1"><g transform="translate(93.207216, 170.249989)"><g><path d="M 8.546875 -25.84375 C 11.078125 -25.84375 13.003906 -25.238281 14.328125 -24.03125 C 15.648438 -22.832031 16.3125 -20.882812 16.3125 -18.1875 L 16.3125 -7.125 C 16.3125 -4.457031 15.65625 -2.515625 14.34375 -1.296875 C 13.03125 -0.078125 11.097656 0.53125 8.546875 0.53125 C 5.992188 0.53125 4.0625 -0.0625 2.75 -1.25 C 1.4375 -2.445312 0.78125 -4.40625 0.78125 -7.125 L 0.78125 -18.1875 C 0.78125 -20.851562 1.4375 -22.796875 2.75 -24.015625 C 4.0625 -25.234375 5.992188 -25.84375 8.546875 -25.84375 Z M 7.296875 -20.03125 L 7.296875 -5.28125 C 7.296875 -4.78125 7.398438 -4.394531 7.609375 -4.125 C 7.828125 -3.851562 8.140625 -3.71875 8.546875 -3.71875 C 8.941406 -3.71875 9.242188 -3.851562 9.453125 -4.125 C 9.671875 -4.394531 9.78125 -4.78125 9.78125 -5.28125 L 9.78125 -20.03125 C 9.78125 -20.53125 9.671875 -20.914062 9.453125 -21.1875 C 9.242188 -21.457031 8.941406 -21.59375 8.546875 -21.59375 C 7.710938 -21.59375 7.296875 -21.070312 7.296875 -20.03125 Z M 7.296875 -20.03125 "/></g></g></g><g fill="#2b2b2b" fill-opacity="1"><g transform="translate(117.81154, 170.249989)"><g><path d="M 8.546875 -25.84375 C 11.097656 -25.84375 12.992188 -25.328125 14.234375 -24.296875 C 15.472656 -23.273438 16.09375 -21.425781 16.09375 -18.75 L 16.09375 -15.984375 L 9.578125 -15.984375 L 9.578125 -20.03125 C 9.578125 -20.625 9.488281 -21.03125 9.3125 -21.25 C 9.132812 -21.476562 8.878906 -21.59375 8.546875 -21.59375 C 7.710938 -21.59375 7.296875 -21 7.296875 -19.8125 L 7.296875 -5.703125 C 7.296875 -5.085938 7.398438 -4.617188 7.609375 -4.296875 C 7.828125 -3.984375 8.140625 -3.828125 8.546875 -3.828125 C 8.992188 -3.828125 9.3125 -3.96875 9.5 -4.25 C 9.6875 -4.539062 9.78125 -4.992188 9.78125 -5.609375 L 9.78125 -10.03125 L 8.4375 -10.03125 L 8.4375 -13.65625 L 16.3125 -13.65625 L 16.3125 0 L 12.046875 0 L 11.5625 -1.765625 C 10.988281 -1.015625 10.269531 -0.441406 9.40625 -0.046875 C 8.550781 0.335938 7.625 0.53125 6.625 0.53125 C 4.550781 0.53125 3.054688 -0.171875 2.140625 -1.578125 C 1.234375 -2.984375 0.78125 -4.679688 0.78125 -6.671875 L 0.78125 -18.1875 C 0.78125 -20.882812 1.429688 -22.832031 2.734375 -24.03125 C 4.035156 -25.238281 5.972656 -25.84375 8.546875 -25.84375 Z M 8.546875 -25.84375 "/></g></g></g><g fill="#2b2b2b" fill-opacity="1"><g transform="translate(142.41586, 170.249989)"><g><path d="M 11.8125 -20.203125 L 7.296875 -20.203125 L 7.296875 -15.5625 L 11.515625 -15.5625 L 11.515625 -10.671875 L 7.296875 -10.671875 L 7.296875 -5.109375 L 12.15625 -5.109375 L 12.15625 0 L 0.78125 0 L 0.78125 -25.3125 L 11.8125 -25.3125 Z M 11.8125 -20.203125 "/></g></g></g><g fill="#2b2b2b" fill-opacity="1"><g transform="translate(162.4118, 170.249989)"><g><path d="M 7.625 -25.84375 C 12.414062 -25.84375 14.8125 -24.035156 14.8125 -20.421875 L 14.8125 -17.90625 L 8.96875 -17.90625 L 8.96875 -20.109375 C 8.96875 -21.234375 8.539062 -21.796875 7.6875 -21.796875 C 6.957031 -21.796875 6.59375 -21.28125 6.59375 -20.25 L 6.59375 -18.96875 C 6.59375 -18.5 6.757812 -18.054688 7.09375 -17.640625 C 7.425781 -17.222656 7.78125 -16.882812 8.15625 -16.625 C 8.53125 -16.363281 9.132812 -15.988281 9.96875 -15.5 C 10.976562 -14.882812 11.84375 -14.28125 12.5625 -13.6875 C 13.289062 -13.09375 13.921875 -12.328125 14.453125 -11.390625 C 14.984375 -10.460938 15.25 -9.359375 15.25 -8.078125 L 15.25 -5.8125 C 15.25 -3.425781 14.566406 -1.769531 13.203125 -0.84375 C 11.847656 0.0703125 9.988281 0.53125 7.625 0.53125 C 5.019531 0.53125 3.1875 0.0078125 2.125 -1.03125 C 1.0625 -2.070312 0.53125 -3.675781 0.53125 -5.84375 L 0.53125 -9.21875 L 6.625 -9.21875 L 6.625 -5.03125 C 6.625 -4.019531 6.992188 -3.515625 7.734375 -3.515625 C 8.128906 -3.515625 8.425781 -3.671875 8.625 -3.984375 C 8.832031 -4.304688 8.9375 -4.847656 8.9375 -5.609375 L 8.9375 -6.953125 C 8.9375 -7.585938 8.765625 -8.148438 8.421875 -8.640625 C 8.078125 -9.140625 7.695312 -9.539062 7.28125 -9.84375 C 6.875 -10.15625 6.289062 -10.550781 5.53125 -11.03125 C 4.507812 -11.644531 3.660156 -12.222656 2.984375 -12.765625 C 2.316406 -13.304688 1.734375 -14.015625 1.234375 -14.890625 C 0.742188 -15.765625 0.5 -16.804688 0.5 -18.015625 L 0.5 -19.71875 C 0.5 -23.800781 2.875 -25.84375 7.625 -25.84375 Z M 7.625 -25.84375 "/></g></g></g><g fill="#2b2b2b" fill-opacity="1"><g transform="translate(185.669065, 170.249989)"><g><path d="M 8.546875 -25.84375 C 11.097656 -25.84375 12.992188 -25.328125 14.234375 -24.296875 C 15.472656 -23.273438 16.09375 -21.425781 16.09375 -18.75 L 16.09375 -15.984375 L 9.578125 -15.984375 L 9.578125 -20.03125 C 9.578125 -20.625 9.488281 -21.03125 9.3125 -21.25 C 9.132812 -21.476562 8.878906 -21.59375 8.546875 -21.59375 C 7.710938 -21.59375 7.296875 -21 7.296875 -19.8125 L 7.296875 -5.703125 C 7.296875 -5.085938 7.398438 -4.617188 7.609375 -4.296875 C 7.828125 -3.984375 8.140625 -3.828125 8.546875 -3.828125 C 8.992188 -3.828125 9.3125 -3.96875 9.5 -4.25 C 9.6875 -4.539062 9.78125 -4.992188 9.78125 -5.609375 L 9.78125 -10.03125 L 8.4375 -10.03125 L 8.4375 -13.65625 L 16.3125 -13.65625 L 16.3125 0 L 12.046875 0 L 11.5625 -1.765625 C 10.988281 -1.015625 10.269531 -0.441406 9.40625 -0.046875 C 8.550781 0.335938 7.625 0.53125 6.625 0.53125 C 4.550781 0.53125 3.054688 -0.171875 2.140625 -1.578125 C 1.234375 -2.984375 0.78125 -4.679688 0.78125 -6.671875 L 0.78125 -18.1875 C 0.78125 -20.882812 1.429688 -22.832031 2.734375 -24.03125 C 4.035156 -25.238281 5.972656 -25.84375 8.546875 -25.84375 Z M 8.546875 -25.84375 "/></g></g></g><g fill="#2b2b2b" fill-opacity="1"><g transform="translate(210.273392, 170.249989)"><g><path d="M 7.796875 -7.796875 L 7.875 -7.796875 L 9.671875 -25.3125 L 16.515625 -25.3125 L 18.359375 -7.796875 L 18.4375 -7.796875 L 19.953125 -25.3125 L 26.265625 -25.3125 L 23.296875 0 L 15.03125 0 L 13.265625 -14.671875 L 13.1875 -14.671875 L 11.234375 0 L 2.9375 0 L 0 -25.3125 L 6.3125 -25.3125 Z M 7.796875 -7.796875 "/></g></g></g><g fill="#2b2b2b" fill-opacity="1"><g transform="translate(244.059049, 170.249989)"><g><path d="M 16.234375 0 L 9.71875 0 L 9.390625 -4.46875 L 7.015625 -4.46875 L 6.703125 0 L 0.171875 0 L 3.375 -25.3125 L 12.765625 -25.3125 Z M 7.015625 -8.9375 L 9.28125 -8.9375 L 8.15625 -20.84375 L 8.078125 -20.84375 Z M 7.015625 -8.9375 "/></g></g></g><g fill="#2b2b2b" fill-opacity="1"><g transform="translate(267.989834, 170.249989)"><g><path d="M 15.390625 -20.3125 L 15.390625 -17.765625 C 15.390625 -16.367188 15.066406 -15.320312 14.421875 -14.625 C 13.785156 -13.925781 12.832031 -13.53125 11.5625 -13.4375 L 11.5625 -13.359375 C 12.957031 -13.265625 13.984375 -12.863281 14.640625 -12.15625 C 15.304688 -11.445312 15.640625 -10.394531 15.640625 -9 L 15.640625 0 L 9.53125 0 L 9.53125 -9.71875 C 9.53125 -11.113281 8.960938 -11.8125 7.828125 -11.8125 C 7.566406 -11.8125 7.320312 -11.773438 7.09375 -11.703125 L 7.09375 0 L 0.78125 0 L 0.78125 -25.3125 L 8.40625 -25.3125 C 9.914062 -25.3125 11.15625 -25.195312 12.125 -24.96875 C 13.09375 -24.75 13.878906 -24.28125 14.484375 -23.5625 C 15.085938 -22.84375 15.390625 -21.757812 15.390625 -20.3125 Z M 7.546875 -15.640625 C 8.304688 -15.640625 8.828125 -15.804688 9.109375 -16.140625 C 9.390625 -16.484375 9.53125 -16.882812 9.53125 -17.34375 L 9.53125 -19.5625 C 9.53125 -19.988281 9.390625 -20.378906 9.109375 -20.734375 C 8.828125 -21.085938 8.320312 -21.265625 7.59375 -21.265625 L 7.09375 -21.265625 L 7.09375 -15.640625 Z M 7.546875 -15.640625 "/></g></g></g><g fill="#2b2b2b" fill-opacity="1"><g transform="translate(291.920619, 170.249989)"><g><path d="M 7.203125 0 L 0.671875 0 L 0.671875 -25.3125 L 7.203125 -25.3125 Z M 7.203125 0 "/></g></g></g><g fill="#2b2b2b" fill-opacity="1"><g transform="translate(124.063613, 219.749986)"><g><path d="M 7.625 -25.84375 C 12.414062 -25.84375 14.8125 -24.035156 14.8125 -20.421875 L 14.8125 -17.90625 L 8.96875 -17.90625 L 8.96875 -20.109375 C 8.96875 -21.234375 8.539062 -21.796875 7.6875 -21.796875 C 6.957031 -21.796875 6.59375 -21.28125 6.59375 -20.25 L 6.59375 -18.96875 C 6.59375 -18.5 6.757812 -18.054688 7.09375 -17.640625 C 7.425781 -17.222656 7.78125 -16.882812 8.15625 -16.625 C 8.53125 -16.363281 9.132812 -15.988281 9.96875 -15.5 C 10.976562 -14.882812 11.84375 -14.28125 12.5625 -13.6875 C 13.289062 -13.09375 13.921875 -12.328125 14.453125 -11.390625 C 14.984375 -10.460938 15.25 -9.359375 15.25 -8.078125 L 15.25 -5.8125 C 15.25 -3.425781 14.566406 -1.769531 13.203125 -0.84375 C 11.847656 0.0703125 9.988281 0.53125 7.625 0.53125 C 5.019531 0.53125 3.1875 0.0078125 2.125 -1.03125 C 1.0625 -2.070312 0.53125 -3.675781 0.53125 -5.84375 L 0.53125 -9.21875 L 6.625 -9.21875 L 6.625 -5.03125 C 6.625 -4.019531 6.992188 -3.515625 7.734375 -3.515625 C 8.128906 -3.515625 8.425781 -3.671875 8.625 -3.984375 C 8.832031 -4.304688 8.9375 -4.847656 8.9375 -5.609375 L 8.9375 -6.953125 C 8.9375 -7.585938 8.765625 -8.148438 8.421875 -8.640625 C 8.078125 -9.140625 7.695312 -9.539062 7.28125 -9.84375 C 6.875 -10.15625 6.289062 -10.550781 5.53125 -11.03125 C 4.507812 -11.644531 3.660156 -12.222656 2.984375 -12.765625 C 2.316406 -13.304688 1.734375 -14.015625 1.234375 -14.890625 C 0.742188 -15.765625 0.5 -16.804688 0.5 -18.015625 L 0.5 -19.71875 C 0.5 -23.800781 2.875 -25.84375 7.625 -25.84375 Z M 7.625 -25.84375 "/></g></g></g><g fill="#2b2b2b" fill-opacity="1"><g transform="translate(147.320876, 219.749986)"><g><path d="M 16.234375 0 L 9.71875 0 L 9.390625 -4.46875 L 7.015625 -4.46875 L 6.703125 0 L 0.171875 0 L 3.375 -25.3125 L 12.765625 -25.3125 Z M 7.015625 -8.9375 L 9.28125 -8.9375 L 8.15625 -20.84375 L 8.078125 -20.84375 Z M 7.015625 -8.9375 "/></g></g></g><g fill="#2b2b2b" fill-opacity="1"><g transform="translate(171.251669, 219.749986)"><g><path d="M 15.390625 -20.3125 L 15.390625 -17.765625 C 15.390625 -16.367188 15.066406 -15.320312 14.421875 -14.625 C 13.785156 -13.925781 12.832031 -13.53125 11.5625 -13.4375 L 11.5625 -13.359375 C 12.957031 -13.265625 13.984375 -12.863281 14.640625 -12.15625 C 15.304688 -11.445312 15.640625 -10.394531 15.640625 -9 L 15.640625 0 L 9.53125 0 L 9.53125 -9.71875 C 9.53125 -11.113281 8.960938 -11.8125 7.828125 -11.8125 C 7.566406 -11.8125 7.320312 -11.773438 7.09375 -11.703125 L 7.09375 0 L 0.78125 0 L 0.78125 -25.3125 L 8.40625 -25.3125 C 9.914062 -25.3125 11.15625 -25.195312 12.125 -24.96875 C 13.09375 -24.75 13.878906 -24.28125 14.484375 -23.5625 C 15.085938 -22.84375 15.390625 -21.757812 15.390625 -20.3125 Z M 7.546875 -15.640625 C 8.304688 -15.640625 8.828125 -15.804688 9.109375 -16.140625 C 9.390625 -16.484375 9.53125 -16.882812 9.53125 -17.34375 L 9.53125 -19.5625 C 9.53125 -19.988281 9.390625 -20.378906 9.109375 -20.734375 C 8.828125 -21.085938 8.320312 -21.265625 7.59375 -21.265625 L 7.09375 -21.265625 L 7.09375 -15.640625 Z M 7.546875 -15.640625 "/></g></g></g><g fill="#2b2b2b" fill-opacity="1"><g transform="translate(195.182459, 219.749986)"><g><path d="M 11.8125 -20.203125 L 7.296875 -20.203125 L 7.296875 -15.5625 L 11.515625 -15.5625 L 11.515625 -10.671875 L 7.296875 -10.671875 L 7.296875 -5.109375 L 12.15625 -5.109375 L 12.15625 0 L 0.78125 0 L 0.78125 -25.3125 L 11.8125 -25.3125 Z M 11.8125 -20.203125 "/></g></g></g><g fill="#2b2b2b" fill-opacity="1"><g transform="translate(215.178399, 219.749986)"><g><path d="M 11.8125 -20.203125 L 7.296875 -20.203125 L 7.296875 -15.5625 L 11.515625 -15.5625 L 11.515625 -10.671875 L 7.296875 -10.671875 L 7.296875 -5.109375 L 12.15625 -5.109375 L 12.15625 0 L 0.78125 0 L 0.78125 -25.3125 L 11.8125 -25.3125 Z M 11.8125 -20.203125 "/></g></g></g><g fill="#2b2b2b" fill-opacity="1"><g transform="translate(235.174338, 219.749986)"><g><path d="M 7.625 -25.84375 C 12.414062 -25.84375 14.8125 -24.035156 14.8125 -20.421875 L 14.8125 -17.90625 L 8.96875 -17.90625 L 8.96875 -20.109375 C 8.96875 -21.234375 8.539062 -21.796875 7.6875 -21.796875 C 6.957031 -21.796875 6.59375 -21.28125 6.59375 -20.25 L 6.59375 -18.96875 C 6.59375 -18.5 6.757812 -18.054688 7.09375 -17.640625 C 7.425781 -17.222656 7.78125 -16.882812 8.15625 -16.625 C 8.53125 -16.363281 9.132812 -15.988281 9.96875 -15.5 C 10.976562 -14.882812 11.84375 -14.28125 12.5625 -13.6875 C 13.289062 -13.09375 13.921875 -12.328125 14.453125 -11.390625 C 14.984375 -10.460938 15.25 -9.359375 15.25 -8.078125 L 15.25 -5.8125 C 15.25 -3.425781 14.566406 -1.769531 13.203125 -0.84375 C 11.847656 0.0703125 9.988281 0.53125 7.625 0.53125 C 5.019531 0.53125 3.1875 0.0078125 2.125 -1.03125 C 1.0625 -2.070312 0.53125 -3.675781 0.53125 -5.84375 L 0.53125 -9.21875 L 6.625 -9.21875 L 6.625 -5.03125 C 6.625 -4.019531 6.992188 -3.515625 7.734375 -3.515625 C 8.128906 -3.515625 8.425781 -3.671875 8.625 -3.984375 C 8.832031 -4.304688 8.9375 -4.847656 8.9375 -5.609375 L 8.9375 -6.953125 C 8.9375 -7.585938 8.765625 -8.148438 8.421875 -8.640625 C 8.078125 -9.140625 7.695312 -9.539062 7.28125 -9.84375 C 6.875 -10.15625 6.289062 -10.550781 5.53125 -11.03125 C 4.507812 -11.644531 3.660156 -12.222656 2.984375 -12.765625 C 2.316406 -13.304688 1.734375 -14.015625 1.234375 -14.890625 C 0.742188 -15.765625 0.5 -16.804688 0.5 -18.015625 L 0.5 -19.71875 C 0.5 -23.800781 2.875 -25.84375 7.625 -25.84375 Z M 7.625 -25.84375 "/></g></g></g></svg>