<svg xmlns="http://www.w3.org/2000/svg" xmlns:xlink="http://www.w3.org/1999/xlink" width="500" zoomAndPan="magnify" viewBox="0 0 375 374.999991" height="500" preserveAspectRatio="xMidYMid meet" version="1.0"><defs><g/></defs><rect x="-37.5" width="450" fill="#ffffff" y="-37.499999" height="449.999989" fill-opacity="1"/><rect x="-37.5" width="450" fill="#e4e2dd" y="-37.499999" height="449.999989" fill-opacity="1"/><g fill="#2b2b2b" fill-opacity="1"><g transform="translate(32.040802, 156.083267)"><g><path d="M 10.3125 -8.390625 L 7.453125 -5.40625 L 7.453125 0 L 2.53125 0 L 2.53125 -21.375 L 7.453125 -21.375 L 7.453125 -11.390625 L 16.921875 -21.375 L 22.40625 -21.375 L 13.5625 -11.84375 L 22.921875 0 L 17.15625 0 Z M 10.3125 -8.390625 "/></g></g></g><g fill="#2b2b2b" fill-opacity="1"><g transform="translate(61.095314, 156.083267)"><g><path d="M 16.609375 -4.578125 L 6.6875 -4.578125 L 4.796875 0 L -0.28125 0 L 9.25 -21.375 L 14.140625 -21.375 L 23.6875 0 L 18.5 0 Z M 15.046875 -8.328125 L 11.65625 -16.515625 L 8.28125 -8.328125 Z M 15.046875 -8.328125 "/></g></g></g><g fill="#2b2b2b" fill-opacity="1"><g transform="translate(90.943268, 156.083267)"><g><path d="M 2.53125 -21.375 L 7.484375 -21.375 L 7.484375 -4.03125 L 18.203125 -4.03125 L 18.203125 0 L 2.53125 0 Z M 2.53125 -21.375 "/></g></g></g><g fill="#2b2b2b" fill-opacity="1"><g transform="translate(115.847482, 156.083267)"><g><path d="M 16.609375 -4.578125 L 6.6875 -4.578125 L 4.796875 0 L -0.28125 0 L 9.25 -21.375 L 14.140625 -21.375 L 23.6875 0 L 18.5 0 Z M 15.046875 -8.328125 L 11.65625 -16.515625 L 8.28125 -8.328125 Z M 15.046875 -8.328125 "/></g></g></g><g fill="#2b2b2b" fill-opacity="1"><g transform="translate(145.695436, 156.083267)"><g><path d="M 9.5625 0.359375 C 7.863281 0.359375 6.226562 0.132812 4.65625 -0.3125 C 3.082031 -0.769531 1.816406 -1.367188 0.859375 -2.109375 L 2.53125 -5.828125 C 3.445312 -5.160156 4.535156 -4.625 5.796875 -4.21875 C 7.054688 -3.8125 8.320312 -3.609375 9.59375 -3.609375 C 10.988281 -3.609375 12.019531 -3.816406 12.6875 -4.234375 C 13.363281 -4.648438 13.703125 -5.203125 13.703125 -5.890625 C 13.703125 -6.398438 13.503906 -6.820312 13.109375 -7.15625 C 12.710938 -7.488281 12.203125 -7.757812 11.578125 -7.96875 C 10.960938 -8.175781 10.125 -8.398438 9.0625 -8.640625 C 7.4375 -9.023438 6.101562 -9.410156 5.0625 -9.796875 C 4.03125 -10.179688 3.140625 -10.800781 2.390625 -11.65625 C 1.648438 -12.507812 1.28125 -13.648438 1.28125 -15.078125 C 1.28125 -16.316406 1.613281 -17.441406 2.28125 -18.453125 C 2.957031 -19.460938 3.972656 -20.257812 5.328125 -20.84375 C 6.679688 -21.4375 8.332031 -21.734375 10.28125 -21.734375 C 11.644531 -21.734375 12.976562 -21.570312 14.28125 -21.25 C 15.59375 -20.925781 16.734375 -20.457031 17.703125 -19.84375 L 16.1875 -16.09375 C 14.207031 -17.207031 12.234375 -17.765625 10.265625 -17.765625 C 8.878906 -17.765625 7.851562 -17.539062 7.1875 -17.09375 C 6.53125 -16.644531 6.203125 -16.054688 6.203125 -15.328125 C 6.203125 -14.597656 6.582031 -14.050781 7.34375 -13.6875 C 8.101562 -13.332031 9.269531 -12.984375 10.84375 -12.640625 C 12.46875 -12.253906 13.796875 -11.867188 14.828125 -11.484375 C 15.867188 -11.097656 16.757812 -10.484375 17.5 -9.640625 C 18.25 -8.804688 18.625 -7.679688 18.625 -6.265625 C 18.625 -5.035156 18.28125 -3.914062 17.59375 -2.90625 C 16.914062 -1.90625 15.894531 -1.109375 14.53125 -0.515625 C 13.164062 0.0664062 11.507812 0.359375 9.5625 0.359375 Z M 9.5625 0.359375 "/></g></g></g><g fill="#2b2b2b" fill-opacity="1"><g transform="translate(171.637239, 156.083267)"><g><path d="M 22.140625 -21.375 L 22.140625 0 L 17.1875 0 L 17.1875 -8.765625 L 7.484375 -8.765625 L 7.484375 0 L 2.53125 0 L 2.53125 -21.375 L 7.484375 -21.375 L 7.484375 -12.9375 L 17.1875 -12.9375 L 17.1875 -21.375 Z M 22.140625 -21.375 "/></g></g></g><g fill="#2b2b2b" fill-opacity="1"><g transform="translate(202.766906, 156.083267)"><g><path d="M 19.078125 -3.96875 L 19.078125 0 L 2.53125 0 L 2.53125 -21.375 L 18.6875 -21.375 L 18.6875 -17.40625 L 7.453125 -17.40625 L 7.453125 -12.765625 L 17.375 -12.765625 L 17.375 -8.921875 L 7.453125 -8.921875 L 7.453125 -3.96875 Z M 19.078125 -3.96875 "/></g></g></g><g fill="#2b2b2b" fill-opacity="1"><g transform="translate(229.715755, 156.083267)"><g><path d="M 6.96875 -17.34375 L 0.125 -17.34375 L 0.125 -21.375 L 18.75 -21.375 L 18.75 -17.34375 L 11.90625 -17.34375 L 11.90625 0 L 6.96875 0 Z M 6.96875 -17.34375 "/></g></g></g><g fill="#2b2b2b" fill-opacity="1"><g transform="translate(255.047198, 156.083267)"><g><path d="M 16.15625 0 L 12.03125 -5.953125 L 7.484375 -5.953125 L 7.484375 0 L 2.53125 0 L 2.53125 -21.375 L 11.78125 -21.375 C 13.675781 -21.375 15.320312 -21.054688 16.71875 -20.421875 C 18.113281 -19.796875 19.1875 -18.898438 19.9375 -17.734375 C 20.6875 -16.578125 21.0625 -15.203125 21.0625 -13.609375 C 21.0625 -12.023438 20.679688 -10.65625 19.921875 -9.5 C 19.160156 -8.351562 18.078125 -7.476562 16.671875 -6.875 L 21.46875 0 Z M 16.0625 -13.609375 C 16.0625 -14.816406 15.671875 -15.738281 14.890625 -16.375 C 14.117188 -17.019531 12.992188 -17.34375 11.515625 -17.34375 L 7.484375 -17.34375 L 7.484375 -9.890625 L 11.515625 -9.890625 C 12.992188 -9.890625 14.117188 -10.210938 14.890625 -10.859375 C 15.671875 -11.515625 16.0625 -12.429688 16.0625 -13.609375 Z M 16.0625 -13.609375 "/></g></g></g><g fill="#2b2b2b" fill-opacity="1"><g transform="translate(283.949126, 156.083267)"><g><path d="M 16.609375 -4.578125 L 6.6875 -4.578125 L 4.796875 0 L -0.28125 0 L 9.25 -21.375 L 14.140625 -21.375 L 23.6875 0 L 18.5 0 Z M 15.046875 -8.328125 L 11.65625 -16.515625 L 8.28125 -8.328125 Z M 15.046875 -8.328125 "/></g></g></g><g fill="#2b2b2b" fill-opacity="1"><g transform="translate(313.797087, 156.083267)"><g><path d="M 21.984375 0 L 21.953125 -12.828125 L 15.65625 -2.265625 L 13.4375 -2.265625 L 7.171875 -12.546875 L 7.171875 0 L 2.53125 0 L 2.53125 -21.375 L 6.625 -21.375 L 14.625 -8.09375 L 22.5 -21.375 L 26.5625 -21.375 L 26.625 0 Z M 21.984375 0 "/></g></g></g><g fill="#2b2b2b" fill-opacity="1"><g transform="translate(88.65638, 197.972249)"><g><path d="M 9.5625 0.359375 C 7.863281 0.359375 6.226562 0.132812 4.65625 -0.3125 C 3.082031 -0.769531 1.816406 -1.367188 0.859375 -2.109375 L 2.53125 -5.828125 C 3.445312 -5.160156 4.535156 -4.625 5.796875 -4.21875 C 7.054688 -3.8125 8.320312 -3.609375 9.59375 -3.609375 C 10.988281 -3.609375 12.019531 -3.816406 12.6875 -4.234375 C 13.363281 -4.648438 13.703125 -5.203125 13.703125 -5.890625 C 13.703125 -6.398438 13.503906 -6.820312 13.109375 -7.15625 C 12.710938 -7.488281 12.203125 -7.757812 11.578125 -7.96875 C 10.960938 -8.175781 10.125 -8.398438 9.0625 -8.640625 C 7.4375 -9.023438 6.101562 -9.410156 5.0625 -9.796875 C 4.03125 -10.179688 3.140625 -10.800781 2.390625 -11.65625 C 1.648438 -12.507812 1.28125 -13.648438 1.28125 -15.078125 C 1.28125 -16.316406 1.613281 -17.441406 2.28125 -18.453125 C 2.957031 -19.460938 3.972656 -20.257812 5.328125 -20.84375 C 6.679688 -21.4375 8.332031 -21.734375 10.28125 -21.734375 C 11.644531 -21.734375 12.976562 -21.570312 14.28125 -21.25 C 15.59375 -20.925781 16.734375 -20.457031 17.703125 -19.84375 L 16.1875 -16.09375 C 14.207031 -17.207031 12.234375 -17.765625 10.265625 -17.765625 C 8.878906 -17.765625 7.851562 -17.539062 7.1875 -17.09375 C 6.53125 -16.644531 6.203125 -16.054688 6.203125 -15.328125 C 6.203125 -14.597656 6.582031 -14.050781 7.34375 -13.6875 C 8.101562 -13.332031 9.269531 -12.984375 10.84375 -12.640625 C 12.46875 -12.253906 13.796875 -11.867188 14.828125 -11.484375 C 15.867188 -11.097656 16.757812 -10.484375 17.5 -9.640625 C 18.25 -8.804688 18.625 -7.679688 18.625 -6.265625 C 18.625 -5.035156 18.28125 -3.914062 17.59375 -2.90625 C 16.914062 -1.90625 15.894531 -1.109375 14.53125 -0.515625 C 13.164062 0.0664062 11.507812 0.359375 9.5625 0.359375 Z M 9.5625 0.359375 "/></g></g></g><g fill="#2b2b2b" fill-opacity="1"><g transform="translate(114.598175, 197.972249)"><g><path d="M 2.53125 -21.375 L 7.484375 -21.375 L 7.484375 0 L 2.53125 0 Z M 2.53125 -21.375 "/></g></g></g><g fill="#2b2b2b" fill-opacity="1"><g transform="translate(131.079739, 197.972249)"><g><path d="M 2.53125 -21.375 L 7.484375 -21.375 L 7.484375 -4.03125 L 18.203125 -4.03125 L 18.203125 0 L 2.53125 0 Z M 2.53125 -21.375 "/></g></g></g><g fill="#2b2b2b" fill-opacity="1"><g transform="translate(155.983953, 197.972249)"><g><path d="M 10.3125 -8.390625 L 7.453125 -5.40625 L 7.453125 0 L 2.53125 0 L 2.53125 -21.375 L 7.453125 -21.375 L 7.453125 -11.390625 L 16.921875 -21.375 L 22.40625 -21.375 L 13.5625 -11.84375 L 22.921875 0 L 17.15625 0 Z M 10.3125 -8.390625 "/></g></g></g><g fill="#2b2b2b" fill-opacity="1"><g transform="translate(185.038465, 197.972249)"><g/></g></g><g fill="#2b2b2b" fill-opacity="1"><g transform="translate(200.146761, 197.972249)"><g><path d="M 16.609375 -4.578125 L 6.6875 -4.578125 L 4.796875 0 L -0.28125 0 L 9.25 -21.375 L 14.140625 -21.375 L 23.6875 0 L 18.5 0 Z M 15.046875 -8.328125 L 11.65625 -16.515625 L 8.28125 -8.328125 Z M 15.046875 -8.328125 "/></g></g></g><g fill="#2b2b2b" fill-opacity="1"><g transform="translate(229.994715, 197.972249)"><g><path d="M 22.140625 -21.375 L 22.140625 0 L 18.078125 0 L 7.421875 -12.96875 L 7.421875 0 L 2.53125 0 L 2.53125 -21.375 L 6.625 -21.375 L 17.25 -8.390625 L 17.25 -21.375 Z M 22.140625 -21.375 "/></g></g></g><g fill="#2b2b2b" fill-opacity="1"><g transform="translate(261.124369, 197.972249)"><g><path d="M 2.53125 -21.375 L 12.25 -21.375 C 14.5625 -21.375 16.609375 -20.929688 18.390625 -20.046875 C 20.171875 -19.160156 21.554688 -17.910156 22.546875 -16.296875 C 23.535156 -14.691406 24.03125 -12.820312 24.03125 -10.6875 C 24.03125 -8.550781 23.535156 -6.675781 22.546875 -5.0625 C 21.554688 -3.457031 20.171875 -2.210938 18.390625 -1.328125 C 16.609375 -0.441406 14.5625 0 12.25 0 L 2.53125 0 Z M 12 -4.0625 C 14.132812 -4.0625 15.835938 -4.65625 17.109375 -5.84375 C 18.378906 -7.03125 19.015625 -8.644531 19.015625 -10.6875 C 19.015625 -12.71875 18.378906 -14.328125 17.109375 -15.515625 C 15.835938 -16.710938 14.132812 -17.3125 12 -17.3125 L 7.484375 -17.3125 L 7.484375 -4.0625 Z M 12 -4.0625 "/></g></g></g><g fill="#2b2b2b" fill-opacity="1"><g transform="translate(108.455469, 239.861231)"><g><path d="M 9.5625 0.359375 C 7.863281 0.359375 6.226562 0.132812 4.65625 -0.3125 C 3.082031 -0.769531 1.816406 -1.367188 0.859375 -2.109375 L 2.53125 -5.828125 C 3.445312 -5.160156 4.535156 -4.625 5.796875 -4.21875 C 7.054688 -3.8125 8.320312 -3.609375 9.59375 -3.609375 C 10.988281 -3.609375 12.019531 -3.816406 12.6875 -4.234375 C 13.363281 -4.648438 13.703125 -5.203125 13.703125 -5.890625 C 13.703125 -6.398438 13.503906 -6.820312 13.109375 -7.15625 C 12.710938 -7.488281 12.203125 -7.757812 11.578125 -7.96875 C 10.960938 -8.175781 10.125 -8.398438 9.0625 -8.640625 C 7.4375 -9.023438 6.101562 -9.410156 5.0625 -9.796875 C 4.03125 -10.179688 3.140625 -10.800781 2.390625 -11.65625 C 1.648438 -12.507812 1.28125 -13.648438 1.28125 -15.078125 C 1.28125 -16.316406 1.613281 -17.441406 2.28125 -18.453125 C 2.957031 -19.460938 3.972656 -20.257812 5.328125 -20.84375 C 6.679688 -21.4375 8.332031 -21.734375 10.28125 -21.734375 C 11.644531 -21.734375 12.976562 -21.570312 14.28125 -21.25 C 15.59375 -20.925781 16.734375 -20.457031 17.703125 -19.84375 L 16.1875 -16.09375 C 14.207031 -17.207031 12.234375 -17.765625 10.265625 -17.765625 C 8.878906 -17.765625 7.851562 -17.539062 7.1875 -17.09375 C 6.53125 -16.644531 6.203125 -16.054688 6.203125 -15.328125 C 6.203125 -14.597656 6.582031 -14.050781 7.34375 -13.6875 C 8.101562 -13.332031 9.269531 -12.984375 10.84375 -12.640625 C 12.46875 -12.253906 13.796875 -11.867188 14.828125 -11.484375 C 15.867188 -11.097656 16.757812 -10.484375 17.5 -9.640625 C 18.25 -8.804688 18.625 -7.679688 18.625 -6.265625 C 18.625 -5.035156 18.28125 -3.914062 17.59375 -2.90625 C 16.914062 -1.90625 15.894531 -1.109375 14.53125 -0.515625 C 13.164062 0.0664062 11.507812 0.359375 9.5625 0.359375 Z M 9.5625 0.359375 "/></g></g></g><g fill="#2b2b2b" fill-opacity="1"><g transform="translate(134.397264, 239.861231)"><g><path d="M 16.609375 -4.578125 L 6.6875 -4.578125 L 4.796875 0 L -0.28125 0 L 9.25 -21.375 L 14.140625 -21.375 L 23.6875 0 L 18.5 0 Z M 15.046875 -8.328125 L 11.65625 -16.515625 L 8.28125 -8.328125 Z M 15.046875 -8.328125 "/></g></g></g><g fill="#2b2b2b" fill-opacity="1"><g transform="translate(164.245218, 239.861231)"><g><path d="M 16.15625 0 L 12.03125 -5.953125 L 7.484375 -5.953125 L 7.484375 0 L 2.53125 0 L 2.53125 -21.375 L 11.78125 -21.375 C 13.675781 -21.375 15.320312 -21.054688 16.71875 -20.421875 C 18.113281 -19.796875 19.1875 -18.898438 19.9375 -17.734375 C 20.6875 -16.578125 21.0625 -15.203125 21.0625 -13.609375 C 21.0625 -12.023438 20.679688 -10.65625 19.921875 -9.5 C 19.160156 -8.351562 18.078125 -7.476562 16.671875 -6.875 L 21.46875 0 Z M 16.0625 -13.609375 C 16.0625 -14.816406 15.671875 -15.738281 14.890625 -16.375 C 14.117188 -17.019531 12.992188 -17.34375 11.515625 -17.34375 L 7.484375 -17.34375 L 7.484375 -9.890625 L 11.515625 -9.890625 C 12.992188 -9.890625 14.117188 -10.210938 14.890625 -10.859375 C 15.671875 -11.515625 16.0625 -12.429688 16.0625 -13.609375 Z M 16.0625 -13.609375 "/></g></g></g><g fill="#2b2b2b" fill-opacity="1"><g transform="translate(193.14714, 239.861231)"><g><path d="M 19.078125 -3.96875 L 19.078125 0 L 2.53125 0 L 2.53125 -21.375 L 18.6875 -21.375 L 18.6875 -17.40625 L 7.453125 -17.40625 L 7.453125 -12.765625 L 17.375 -12.765625 L 17.375 -8.921875 L 7.453125 -8.921875 L 7.453125 -3.96875 Z M 19.078125 -3.96875 "/></g></g></g><g fill="#2b2b2b" fill-opacity="1"><g transform="translate(220.095982, 239.861231)"><g><path d="M 19.078125 -3.96875 L 19.078125 0 L 2.53125 0 L 2.53125 -21.375 L 18.6875 -21.375 L 18.6875 -17.40625 L 7.453125 -17.40625 L 7.453125 -12.765625 L 17.375 -12.765625 L 17.375 -8.921875 L 7.453125 -8.921875 L 7.453125 -3.96875 Z M 19.078125 -3.96875 "/></g></g></g><g fill="#2b2b2b" fill-opacity="1"><g transform="translate(247.044831, 239.861231)"><g><path d="M 9.5625 0.359375 C 7.863281 0.359375 6.226562 0.132812 4.65625 -0.3125 C 3.082031 -0.769531 1.816406 -1.367188 0.859375 -2.109375 L 2.53125 -5.828125 C 3.445312 -5.160156 4.535156 -4.625 5.796875 -4.21875 C 7.054688 -3.8125 8.320312 -3.609375 9.59375 -3.609375 C 10.988281 -3.609375 12.019531 -3.816406 12.6875 -4.234375 C 13.363281 -4.648438 13.703125 -5.203125 13.703125 -5.890625 C 13.703125 -6.398438 13.503906 -6.820312 13.109375 -7.15625 C 12.710938 -7.488281 12.203125 -7.757812 11.578125 -7.96875 C 10.960938 -8.175781 10.125 -8.398438 9.0625 -8.640625 C 7.4375 -9.023438 6.101562 -9.410156 5.0625 -9.796875 C 4.03125 -10.179688 3.140625 -10.800781 2.390625 -11.65625 C 1.648438 -12.507812 1.28125 -13.648438 1.28125 -15.078125 C 1.28125 -16.316406 1.613281 -17.441406 2.28125 -18.453125 C 2.957031 -19.460938 3.972656 -20.257812 5.328125 -20.84375 C 6.679688 -21.4375 8.332031 -21.734375 10.28125 -21.734375 C 11.644531 -21.734375 12.976562 -21.570312 14.28125 -21.25 C 15.59375 -20.925781 16.734375 -20.457031 17.703125 -19.84375 L 16.1875 -16.09375 C 14.207031 -17.207031 12.234375 -17.765625 10.265625 -17.765625 C 8.878906 -17.765625 7.851562 -17.539062 7.1875 -17.09375 C 6.53125 -16.644531 6.203125 -16.054688 6.203125 -15.328125 C 6.203125 -14.597656 6.582031 -14.050781 7.34375 -13.6875 C 8.101562 -13.332031 9.269531 -12.984375 10.84375 -12.640625 C 12.46875 -12.253906 13.796875 -11.867188 14.828125 -11.484375 C 15.867188 -11.097656 16.757812 -10.484375 17.5 -9.640625 C 18.25 -8.804688 18.625 -7.679688 18.625 -6.265625 C 18.625 -5.035156 18.28125 -3.914062 17.59375 -2.90625 C 16.914062 -1.90625 15.894531 -1.109375 14.53125 -0.515625 C 13.164062 0.0664062 11.507812 0.359375 9.5625 0.359375 Z M 9.5625 0.359375 "/></g></g></g></svg>