<svg xmlns="http://www.w3.org/2000/svg" xmlns:xlink="http://www.w3.org/1999/xlink" width="500" zoomAndPan="magnify" viewBox="0 0 375 374.999991" height="500" preserveAspectRatio="xMidYMid meet" version="1.0"><defs><g/></defs><rect x="-37.5" width="450" fill="#ffffff" y="-37.499999" height="449.999989" fill-opacity="1"/><rect x="-37.5" width="450" fill="#f8fff2" y="-37.499999" height="449.999989" fill-opacity="1"/><g fill="#2b2b2b" fill-opacity="1"><g transform="translate(120.859692, 176.249988)"><g><path d="M 11.125 -16.515625 L 11.125 -27.796875 C 11.125 -28.171875 11.316406 -28.359375 11.703125 -28.359375 L 15.34375 -28.359375 C 15.75 -28.359375 15.953125 -28.171875 15.953125 -27.796875 L 15.953125 -0.5625 C 15.953125 -0.1875 15.75 0 15.34375 0 L 11.703125 0 C 11.316406 0 11.125 -0.1875 11.125 -0.5625 L 11.125 -11.84375 L 6.59375 -11.84375 L 6.59375 -0.5625 C 6.59375 -0.1875 6.40625 0 6.03125 0 L 2.375 0 C 1.96875 0 1.765625 -0.1875 1.765625 -0.5625 L 1.765625 -27.796875 C 1.765625 -28.171875 1.96875 -28.359375 2.375 -28.359375 L 6.03125 -28.359375 C 6.40625 -28.359375 6.59375 -28.171875 6.59375 -27.796875 L 6.59375 -16.515625 Z M 11.125 -16.515625 "/></g></g></g><g fill="#2b2b2b" fill-opacity="1"><g transform="translate(146.102104, 176.249988)"><g><path d="M 1.765625 -5.109375 L 1.765625 -23.25 C 1.765625 -24.9375 2.203125 -26.207031 3.078125 -27.0625 C 3.953125 -27.925781 5.21875 -28.359375 6.875 -28.359375 L 10.84375 -28.359375 C 12.519531 -28.359375 13.789062 -27.925781 14.65625 -27.0625 C 15.519531 -26.207031 15.953125 -24.9375 15.953125 -23.25 L 15.953125 -5.109375 C 15.953125 -3.453125 15.519531 -2.1875 14.65625 -1.3125 C 13.789062 -0.4375 12.519531 0 10.84375 0 L 6.875 0 C 5.21875 0 3.953125 -0.4375 3.078125 -1.3125 C 2.203125 -2.1875 1.765625 -3.453125 1.765625 -5.109375 Z M 7.90625 -4.578125 L 9.96875 -4.578125 C 10.90625 -4.578125 11.375 -5.046875 11.375 -5.984375 L 11.375 -22.375 C 11.375 -23.3125 10.90625 -23.78125 9.96875 -23.78125 L 7.90625 -23.78125 C 6.957031 -23.78125 6.484375 -23.3125 6.484375 -22.375 L 6.484375 -5.984375 C 6.484375 -5.046875 6.957031 -4.578125 7.90625 -4.578125 Z M 7.90625 -4.578125 "/></g></g></g><g fill="#2b2b2b" fill-opacity="1"><g transform="translate(171.344515, 176.249988)"><g><path d="M 1.625 -28.359375 L 14.671875 -28.359375 C 15.054688 -28.359375 15.25 -28.171875 15.25 -27.796875 L 15.25 -24.25 C 15.25 -23.875 15.054688 -23.6875 14.671875 -23.6875 L 10.5625 -23.6875 L 10.5625 -0.5625 C 10.5625 -0.1875 10.375 0 10 0 L 6.3125 0 C 5.9375 0 5.75 -0.1875 5.75 -0.5625 L 5.75 -23.6875 L 1.625 -23.6875 C 1.25 -23.6875 1.0625 -23.875 1.0625 -24.25 L 1.0625 -27.796875 C 1.0625 -28.171875 1.25 -28.359375 1.625 -28.359375 Z M 1.625 -28.359375 "/></g></g></g><g fill="#2b2b2b" fill-opacity="1"><g transform="translate(195.168956, 176.249988)"><g><path d="M 15.921875 -27.796875 L 15.921875 -24.25 C 15.921875 -23.84375 15.726562 -23.640625 15.34375 -23.640625 L 6.484375 -23.640625 L 6.484375 -16.5625 L 13.265625 -16.5625 C 13.640625 -16.5625 13.828125 -16.359375 13.828125 -15.953125 L 13.828125 -12.4375 C 13.828125 -12.039062 13.640625 -11.84375 13.265625 -11.84375 L 6.484375 -11.84375 L 6.484375 -4.6875 L 15.34375 -4.6875 C 15.726562 -4.6875 15.921875 -4.492188 15.921875 -4.109375 L 15.921875 -0.5625 C 15.921875 -0.1875 15.726562 0 15.34375 0 L 2.296875 0 C 1.941406 0 1.765625 -0.1875 1.765625 -0.5625 L 1.765625 -27.796875 C 1.765625 -28.171875 1.941406 -28.359375 2.296875 -28.359375 L 15.34375 -28.359375 C 15.726562 -28.359375 15.921875 -28.171875 15.921875 -27.796875 Z M 15.921875 -27.796875 "/></g></g></g><g fill="#2b2b2b" fill-opacity="1"><g transform="translate(220.375916, 176.249988)"><g><path d="M 6.59375 -4.6875 L 6.59375 -27.796875 C 6.59375 -28.171875 6.40625 -28.359375 6.03125 -28.359375 L 2.34375 -28.359375 C 1.957031 -28.359375 1.765625 -28.171875 1.765625 -27.796875 L 1.765625 -0.5625 C 1.765625 -0.1875 1.957031 0 2.34375 0 L 15.03125 0 C 15.40625 0 15.59375 -0.1875 15.59375 -0.5625 L 15.59375 -4.109375 C 15.59375 -4.492188 15.40625 -4.6875 15.03125 -4.6875 Z M 6.59375 -4.6875 "/></g></g></g><g fill="#2b2b2b" fill-opacity="1"><g transform="translate(245.265938, 176.249988)"><g/></g></g><g fill="#2b2b2b" fill-opacity="1"><g transform="translate(87.086257, 225.749985)"><g><path d="M 18.859375 0 L 15.109375 0 C 14.796875 0 14.601562 -0.164062 14.53125 -0.5 L 13.546875 -5.671875 L 7.234375 -5.671875 L 6.28125 -0.5 C 6.207031 -0.164062 6.015625 0 5.703125 0 L 1.921875 0 C 1.492188 0 1.335938 -0.203125 1.453125 -0.609375 L 7.34375 -27.859375 C 7.40625 -28.191406 7.601562 -28.359375 7.9375 -28.359375 L 12.875 -28.359375 C 13.195312 -28.359375 13.394531 -28.191406 13.46875 -27.859375 L 19.359375 -0.609375 C 19.429688 -0.203125 19.265625 0 18.859375 0 Z M 12.65625 -9.78125 L 10.390625 -22.15625 L 8.125 -9.78125 Z M 12.65625 -9.78125 "/></g></g></g><g fill="#2b2b2b" fill-opacity="1"><g transform="translate(115.377294, 225.749985)"><g><path d="M 6.875 -28.359375 L 10.84375 -28.359375 C 12.519531 -28.359375 13.789062 -27.925781 14.65625 -27.0625 C 15.519531 -26.207031 15.953125 -24.9375 15.953125 -23.25 L 15.953125 -19.5 C 15.953125 -19.125 15.765625 -18.9375 15.390625 -18.9375 L 11.703125 -18.9375 C 11.316406 -18.9375 11.125 -19.125 11.125 -19.5 L 11.125 -22.265625 C 11.125 -23.210938 10.65625 -23.6875 9.71875 -23.6875 L 8.015625 -23.6875 C 7.066406 -23.6875 6.59375 -23.210938 6.59375 -22.265625 L 6.59375 -17.375 L 15.03125 -14.609375 C 15.644531 -14.347656 15.953125 -13.910156 15.953125 -13.296875 L 15.953125 -5.109375 C 15.953125 -3.453125 15.519531 -2.1875 14.65625 -1.3125 C 13.789062 -0.4375 12.519531 0 10.84375 0 L 6.875 0 C 5.21875 0 3.953125 -0.4375 3.078125 -1.3125 C 2.203125 -2.1875 1.765625 -3.453125 1.765625 -5.109375 L 1.765625 -8.828125 C 1.765625 -9.203125 1.957031 -9.390625 2.34375 -9.390625 L 6.03125 -9.390625 C 6.40625 -9.390625 6.59375 -9.203125 6.59375 -8.828125 L 6.59375 -6.09375 C 6.59375 -5.15625 7.066406 -4.6875 8.015625 -4.6875 L 9.71875 -4.6875 C 10.65625 -4.6875 11.125 -5.15625 11.125 -6.09375 L 11.125 -10.8125 L 2.734375 -13.578125 C 2.085938 -13.785156 1.765625 -14.222656 1.765625 -14.890625 L 1.765625 -23.25 C 1.765625 -24.9375 2.203125 -26.207031 3.078125 -27.0625 C 3.953125 -27.925781 5.21875 -28.359375 6.875 -28.359375 Z M 6.875 -28.359375 "/></g></g></g><g fill="#2b2b2b" fill-opacity="1"><g transform="translate(140.619706, 225.749985)"><g><path d="M 11.125 -16.515625 L 11.125 -27.796875 C 11.125 -28.171875 11.316406 -28.359375 11.703125 -28.359375 L 15.34375 -28.359375 C 15.75 -28.359375 15.953125 -28.171875 15.953125 -27.796875 L 15.953125 -0.5625 C 15.953125 -0.1875 15.75 0 15.34375 0 L 11.703125 0 C 11.316406 0 11.125 -0.1875 11.125 -0.5625 L 11.125 -11.84375 L 6.59375 -11.84375 L 6.59375 -0.5625 C 6.59375 -0.1875 6.40625 0 6.03125 0 L 2.375 0 C 1.96875 0 1.765625 -0.1875 1.765625 -0.5625 L 1.765625 -27.796875 C 1.765625 -28.171875 1.96875 -28.359375 2.375 -28.359375 L 6.03125 -28.359375 C 6.40625 -28.359375 6.59375 -28.171875 6.59375 -27.796875 L 6.59375 -16.515625 Z M 11.125 -16.515625 "/></g></g></g><g fill="#2b2b2b" fill-opacity="1"><g transform="translate(165.862115, 225.749985)"><g><path d="M 2.34375 -28.359375 L 6.03125 -28.359375 C 6.40625 -28.359375 6.59375 -28.171875 6.59375 -27.796875 L 6.59375 -0.5625 C 6.59375 -0.1875 6.40625 0 6.03125 0 L 2.34375 0 C 1.957031 0 1.765625 -0.1875 1.765625 -0.5625 L 1.765625 -27.796875 C 1.765625 -28.171875 1.957031 -28.359375 2.34375 -28.359375 Z M 2.34375 -28.359375 "/></g></g></g><g fill="#2b2b2b" fill-opacity="1"><g transform="translate(181.745953, 225.749985)"><g><path d="M 16.34375 -23.25 L 16.34375 -14.609375 C 16.34375 -12.242188 15.476562 -10.679688 13.75 -9.921875 L 16.203125 -0.640625 C 16.316406 -0.210938 16.148438 0 15.703125 0 L 12.015625 0 C 11.679688 0 11.484375 -0.164062 11.421875 -0.5 L 9.046875 -9.5 L 6.59375 -9.5 L 6.59375 -0.5625 C 6.59375 -0.1875 6.40625 0 6.03125 0 L 2.34375 0 C 1.957031 0 1.765625 -0.1875 1.765625 -0.5625 L 1.765625 -27.796875 C 1.765625 -28.171875 1.957031 -28.359375 2.34375 -28.359375 L 11.234375 -28.359375 C 12.910156 -28.359375 14.179688 -27.925781 15.046875 -27.0625 C 15.910156 -26.207031 16.34375 -24.9375 16.34375 -23.25 Z M 6.59375 -14.1875 L 10.109375 -14.1875 C 11.046875 -14.1875 11.515625 -14.65625 11.515625 -15.59375 L 11.515625 -22.265625 C 11.515625 -23.210938 11.046875 -23.6875 10.109375 -23.6875 L 6.59375 -23.6875 Z M 6.59375 -14.1875 "/></g></g></g><g fill="#2b2b2b" fill-opacity="1"><g transform="translate(207.378303, 225.749985)"><g><path d="M 21.171875 -28.359375 L 24.53125 -28.359375 C 25.03125 -28.359375 25.253906 -28.113281 25.203125 -27.625 L 22.15625 -0.671875 C 22.132812 -0.222656 21.882812 0 21.40625 0 L 17.9375 0 C 17.539062 0 17.28125 -0.210938 17.15625 -0.640625 L 13.46875 -16.65625 L 9.75 -0.609375 C 9.632812 -0.203125 9.375 0 8.96875 0 L 5.421875 0 C 4.953125 0 4.707031 -0.222656 4.6875 -0.671875 L 1.765625 -27.625 C 1.722656 -28.113281 1.953125 -28.359375 2.453125 -28.359375 L 5.8125 -28.359375 C 6.257812 -28.359375 6.507812 -28.132812 6.5625 -27.6875 L 7.9375 -11.09375 L 8.125 -11.09375 L 11.625 -27.71875 C 11.75 -28.144531 12.007812 -28.359375 12.40625 -28.359375 L 14.53125 -28.359375 C 14.957031 -28.359375 15.21875 -28.144531 15.3125 -27.71875 L 18.796875 -11.09375 L 18.96875 -11.09375 L 20.421875 -27.6875 C 20.460938 -28.132812 20.710938 -28.359375 21.171875 -28.359375 Z M 21.171875 -28.359375 "/></g></g></g><g fill="#2b2b2b" fill-opacity="1"><g transform="translate(241.872945, 225.749985)"><g><path d="M 18.859375 0 L 15.109375 0 C 14.796875 0 14.601562 -0.164062 14.53125 -0.5 L 13.546875 -5.671875 L 7.234375 -5.671875 L 6.28125 -0.5 C 6.207031 -0.164062 6.015625 0 5.703125 0 L 1.921875 0 C 1.492188 0 1.335938 -0.203125 1.453125 -0.609375 L 7.34375 -27.859375 C 7.40625 -28.191406 7.601562 -28.359375 7.9375 -28.359375 L 12.875 -28.359375 C 13.195312 -28.359375 13.394531 -28.191406 13.46875 -27.859375 L 19.359375 -0.609375 C 19.429688 -0.203125 19.265625 0 18.859375 0 Z M 12.65625 -9.78125 L 10.390625 -22.15625 L 8.125 -9.78125 Z M 12.65625 -9.78125 "/></g></g></g><g fill="#2b2b2b" fill-opacity="1"><g transform="translate(270.163985, 225.749985)"><g><path d="M 1.765625 -0.5625 L 1.765625 -27.796875 C 1.765625 -28.171875 1.957031 -28.359375 2.34375 -28.359375 L 10.84375 -28.359375 C 12.519531 -28.359375 13.789062 -27.921875 14.65625 -27.046875 C 15.519531 -26.171875 15.953125 -24.894531 15.953125 -23.21875 L 15.953125 -5.109375 C 15.953125 -3.453125 15.519531 -2.1875 14.65625 -1.3125 C 13.789062 -0.4375 12.519531 0 10.84375 0 L 2.34375 0 C 1.957031 0 1.765625 -0.1875 1.765625 -0.5625 Z M 6.59375 -4.6875 L 9.859375 -4.6875 C 10.804688 -4.6875 11.28125 -5.15625 11.28125 -6.09375 L 11.28125 -22.234375 C 11.28125 -23.203125 10.804688 -23.6875 9.859375 -23.6875 L 6.59375 -23.6875 Z M 6.59375 -4.6875 "/></g></g></g></svg>