<svg xmlns="http://www.w3.org/2000/svg" xmlns:xlink="http://www.w3.org/1999/xlink" width="500" zoomAndPan="magnify" viewBox="0 0 375 374.999991" height="500" preserveAspectRatio="xMidYMid meet" version="1.0"><defs><g/></defs><rect x="-37.5" width="450" fill="#ffffff" y="-37.499999" height="449.999989" fill-opacity="1"/><rect x="-37.5" width="450" fill="#f8fff2" y="-37.499999" height="449.999989" fill-opacity="1"/><g fill="#2b2b2b" fill-opacity="1"><g transform="translate(49.672983, 176.249988)"><g><path d="M 16.953125 0 L 13.1875 0 C 12.78125 0 12.507812 -0.175781 12.375 -0.53125 L 7.90625 -11.0625 L 6.59375 -8.546875 L 6.59375 -0.703125 C 6.59375 -0.234375 6.359375 0 5.890625 0 L 2.484375 0 C 2.003906 0 1.765625 -0.234375 1.765625 -0.703125 L 1.765625 -27.65625 C 1.765625 -28.125 2.003906 -28.359375 2.484375 -28.359375 L 5.890625 -28.359375 C 6.359375 -28.359375 6.59375 -28.125 6.59375 -27.65625 L 6.59375 -16.65625 L 12.046875 -27.828125 C 12.242188 -28.179688 12.519531 -28.359375 12.875 -28.359375 L 16.59375 -28.359375 C 16.851562 -28.359375 17.03125 -28.28125 17.125 -28.125 C 17.21875 -27.976562 17.207031 -27.773438 17.09375 -27.515625 L 11.0625 -15.140625 L 17.484375 -0.8125 C 17.597656 -0.570312 17.609375 -0.375 17.515625 -0.21875 C 17.421875 -0.0703125 17.234375 0 16.953125 0 Z M 16.953125 0 "/></g></g></g><g fill="#2b2b2b" fill-opacity="1"><g transform="translate(76.19156, 176.249988)"><g><path d="M 18.859375 0 L 15.109375 0 C 14.796875 0 14.601562 -0.164062 14.53125 -0.5 L 13.546875 -5.671875 L 7.234375 -5.671875 L 6.28125 -0.5 C 6.207031 -0.164062 6.015625 0 5.703125 0 L 1.921875 0 C 1.492188 0 1.335938 -0.203125 1.453125 -0.609375 L 7.34375 -27.859375 C 7.40625 -28.191406 7.601562 -28.359375 7.9375 -28.359375 L 12.875 -28.359375 C 13.195312 -28.359375 13.394531 -28.191406 13.46875 -27.859375 L 19.359375 -0.609375 C 19.429688 -0.203125 19.265625 0 18.859375 0 Z M 12.65625 -9.78125 L 10.390625 -22.15625 L 8.125 -9.78125 Z M 12.65625 -9.78125 "/></g></g></g><g fill="#2b2b2b" fill-opacity="1"><g transform="translate(104.482597, 176.249988)"><g><path d="M 16.59375 -28.359375 L 21.265625 -28.359375 C 21.742188 -28.359375 21.984375 -28.125 21.984375 -27.65625 L 21.984375 -0.703125 C 21.984375 -0.234375 21.742188 0 21.265625 0 L 17.96875 0 C 17.5 0 17.265625 -0.234375 17.265625 -0.703125 L 17.265625 -16.65625 L 17.015625 -16.65625 L 13.5 -0.640625 C 13.40625 -0.210938 13.148438 0 12.734375 0 L 10.984375 0 C 10.585938 0 10.328125 -0.210938 10.203125 -0.640625 L 6.703125 -16.65625 L 6.453125 -16.65625 L 6.453125 -0.703125 C 6.453125 -0.234375 6.21875 0 5.75 0 L 2.484375 0 C 2.003906 0 1.765625 -0.234375 1.765625 -0.703125 L 1.765625 -27.65625 C 1.765625 -28.125 2.003906 -28.359375 2.484375 -28.359375 L 7.15625 -28.359375 C 7.582031 -28.359375 7.84375 -28.144531 7.9375 -27.71875 L 11.875 -10.0625 L 15.8125 -27.71875 C 15.925781 -28.144531 16.1875 -28.359375 16.59375 -28.359375 Z M 16.59375 -28.359375 "/></g></g></g><g fill="#2b2b2b" fill-opacity="1"><g transform="translate(135.751362, 176.249988)"><g><path d="M 6.59375 -4.6875 L 6.59375 -27.796875 C 6.59375 -28.171875 6.40625 -28.359375 6.03125 -28.359375 L 2.34375 -28.359375 C 1.957031 -28.359375 1.765625 -28.171875 1.765625 -27.796875 L 1.765625 -0.5625 C 1.765625 -0.1875 1.957031 0 2.34375 0 L 15.03125 0 C 15.40625 0 15.59375 -0.1875 15.59375 -0.5625 L 15.59375 -4.109375 C 15.59375 -4.492188 15.40625 -4.6875 15.03125 -4.6875 Z M 6.59375 -4.6875 "/></g></g></g><g fill="#2b2b2b" fill-opacity="1"><g transform="translate(160.639285, 176.249988)"><g><path d="M 18.859375 0 L 15.109375 0 C 14.796875 0 14.601562 -0.164062 14.53125 -0.5 L 13.546875 -5.671875 L 7.234375 -5.671875 L 6.28125 -0.5 C 6.207031 -0.164062 6.015625 0 5.703125 0 L 1.921875 0 C 1.492188 0 1.335938 -0.203125 1.453125 -0.609375 L 7.34375 -27.859375 C 7.40625 -28.191406 7.601562 -28.359375 7.9375 -28.359375 L 12.875 -28.359375 C 13.195312 -28.359375 13.394531 -28.191406 13.46875 -27.859375 L 19.359375 -0.609375 C 19.429688 -0.203125 19.265625 0 18.859375 0 Z M 12.65625 -9.78125 L 10.390625 -22.15625 L 8.125 -9.78125 Z M 12.65625 -9.78125 "/></g></g></g><g fill="#2b2b2b" fill-opacity="1"><g transform="translate(188.930325, 176.249988)"><g/></g></g><g fill="#2b2b2b" fill-opacity="1"><g transform="translate(205.310447, 176.249988)"><g><path d="M 12.65625 -28.359375 L 16.34375 -28.359375 C 16.71875 -28.359375 16.90625 -28.171875 16.90625 -27.796875 L 16.90625 -0.5625 C 16.90625 -0.1875 16.71875 0 16.34375 0 L 12.828125 0 C 12.503906 0 12.296875 -0.148438 12.203125 -0.453125 L 6.765625 -15.59375 L 6.59375 -15.59375 L 6.59375 -0.5625 C 6.59375 -0.1875 6.40625 0 6.03125 0 L 2.34375 0 C 1.957031 0 1.765625 -0.1875 1.765625 -0.5625 L 1.765625 -27.796875 C 1.765625 -28.171875 1.957031 -28.359375 2.34375 -28.359375 L 5.84375 -28.359375 C 6.175781 -28.359375 6.390625 -28.207031 6.484375 -27.90625 L 11.875 -12.828125 L 12.09375 -12.828125 L 12.09375 -27.796875 C 12.09375 -28.171875 12.28125 -28.359375 12.65625 -28.359375 Z M 12.65625 -28.359375 "/></g></g></g><g fill="#2b2b2b" fill-opacity="1"><g transform="translate(231.509988, 176.249988)"><g><path d="M 15.921875 -27.796875 L 15.921875 -24.25 C 15.921875 -23.84375 15.726562 -23.640625 15.34375 -23.640625 L 6.484375 -23.640625 L 6.484375 -16.5625 L 13.265625 -16.5625 C 13.640625 -16.5625 13.828125 -16.359375 13.828125 -15.953125 L 13.828125 -12.4375 C 13.828125 -12.039062 13.640625 -11.84375 13.265625 -11.84375 L 6.484375 -11.84375 L 6.484375 -4.6875 L 15.34375 -4.6875 C 15.726562 -4.6875 15.921875 -4.492188 15.921875 -4.109375 L 15.921875 -0.5625 C 15.921875 -0.1875 15.726562 0 15.34375 0 L 2.296875 0 C 1.941406 0 1.765625 -0.1875 1.765625 -0.5625 L 1.765625 -27.796875 C 1.765625 -28.171875 1.941406 -28.359375 2.296875 -28.359375 L 15.34375 -28.359375 C 15.726562 -28.359375 15.921875 -28.171875 15.921875 -27.796875 Z M 15.921875 -27.796875 "/></g></g></g><g fill="#2b2b2b" fill-opacity="1"><g transform="translate(256.716938, 176.249988)"><g><path d="M 11.125 -16.515625 L 11.125 -27.796875 C 11.125 -28.171875 11.316406 -28.359375 11.703125 -28.359375 L 15.34375 -28.359375 C 15.75 -28.359375 15.953125 -28.171875 15.953125 -27.796875 L 15.953125 -0.5625 C 15.953125 -0.1875 15.75 0 15.34375 0 L 11.703125 0 C 11.316406 0 11.125 -0.1875 11.125 -0.5625 L 11.125 -11.84375 L 6.59375 -11.84375 L 6.59375 -0.5625 C 6.59375 -0.1875 6.40625 0 6.03125 0 L 2.375 0 C 1.96875 0 1.765625 -0.1875 1.765625 -0.5625 L 1.765625 -27.796875 C 1.765625 -28.171875 1.96875 -28.359375 2.375 -28.359375 L 6.03125 -28.359375 C 6.40625 -28.359375 6.59375 -28.171875 6.59375 -27.796875 L 6.59375 -16.515625 Z M 11.125 -16.515625 "/></g></g></g><g fill="#2b2b2b" fill-opacity="1"><g transform="translate(281.959352, 176.249988)"><g><path d="M 16.34375 -23.25 L 16.34375 -14.609375 C 16.34375 -12.242188 15.476562 -10.679688 13.75 -9.921875 L 16.203125 -0.640625 C 16.316406 -0.210938 16.148438 0 15.703125 0 L 12.015625 0 C 11.679688 0 11.484375 -0.164062 11.421875 -0.5 L 9.046875 -9.5 L 6.59375 -9.5 L 6.59375 -0.5625 C 6.59375 -0.1875 6.40625 0 6.03125 0 L 2.34375 0 C 1.957031 0 1.765625 -0.1875 1.765625 -0.5625 L 1.765625 -27.796875 C 1.765625 -28.171875 1.957031 -28.359375 2.34375 -28.359375 L 11.234375 -28.359375 C 12.910156 -28.359375 14.179688 -27.925781 15.046875 -27.0625 C 15.910156 -26.207031 16.34375 -24.9375 16.34375 -23.25 Z M 6.59375 -14.1875 L 10.109375 -14.1875 C 11.046875 -14.1875 11.515625 -14.65625 11.515625 -15.59375 L 11.515625 -22.265625 C 11.515625 -23.210938 11.046875 -23.6875 10.109375 -23.6875 L 6.59375 -23.6875 Z M 6.59375 -14.1875 "/></g></g></g><g fill="#2b2b2b" fill-opacity="1"><g transform="translate(307.59169, 176.249988)"><g><path d="M 11.984375 -28.359375 L 15.25 -28.359375 C 15.4375 -28.359375 15.597656 -28.285156 15.734375 -28.140625 C 15.878906 -28.003906 15.953125 -27.84375 15.953125 -27.65625 L 15.953125 -5.109375 C 15.953125 -3.453125 15.519531 -2.1875 14.65625 -1.3125 C 13.789062 -0.4375 12.519531 0 10.84375 0 L 6.875 0 C 5.21875 0 3.953125 -0.4375 3.078125 -1.3125 C 2.203125 -2.1875 1.765625 -3.453125 1.765625 -5.109375 L 1.765625 -27.65625 C 1.765625 -27.84375 1.835938 -28.003906 1.984375 -28.140625 C 2.128906 -28.285156 2.296875 -28.359375 2.484375 -28.359375 L 5.890625 -28.359375 C 6.078125 -28.359375 6.238281 -28.285156 6.375 -28.140625 C 6.519531 -28.003906 6.59375 -27.84375 6.59375 -27.65625 L 6.59375 -6.09375 C 6.59375 -5.15625 7.066406 -4.6875 8.015625 -4.6875 L 9.859375 -4.6875 C 10.804688 -4.6875 11.28125 -5.15625 11.28125 -6.09375 L 11.28125 -27.65625 C 11.28125 -27.84375 11.347656 -28.003906 11.484375 -28.140625 C 11.628906 -28.285156 11.796875 -28.359375 11.984375 -28.359375 Z M 11.984375 -28.359375 "/></g></g></g><g fill="#2b2b2b" fill-opacity="1"><g transform="translate(94.321417, 225.749985)"><g><path d="M 11.125 -16.515625 L 11.125 -27.796875 C 11.125 -28.171875 11.316406 -28.359375 11.703125 -28.359375 L 15.34375 -28.359375 C 15.75 -28.359375 15.953125 -28.171875 15.953125 -27.796875 L 15.953125 -0.5625 C 15.953125 -0.1875 15.75 0 15.34375 0 L 11.703125 0 C 11.316406 0 11.125 -0.1875 11.125 -0.5625 L 11.125 -11.84375 L 6.59375 -11.84375 L 6.59375 -0.5625 C 6.59375 -0.1875 6.40625 0 6.03125 0 L 2.375 0 C 1.96875 0 1.765625 -0.1875 1.765625 -0.5625 L 1.765625 -27.796875 C 1.765625 -28.171875 1.96875 -28.359375 2.375 -28.359375 L 6.03125 -28.359375 C 6.40625 -28.359375 6.59375 -28.171875 6.59375 -27.796875 L 6.59375 -16.515625 Z M 11.125 -16.515625 "/></g></g></g><g fill="#2b2b2b" fill-opacity="1"><g transform="translate(119.563829, 225.749985)"><g><path d="M 1.765625 -5.109375 L 1.765625 -23.25 C 1.765625 -24.9375 2.203125 -26.207031 3.078125 -27.0625 C 3.953125 -27.925781 5.21875 -28.359375 6.875 -28.359375 L 10.84375 -28.359375 C 12.519531 -28.359375 13.789062 -27.925781 14.65625 -27.0625 C 15.519531 -26.207031 15.953125 -24.9375 15.953125 -23.25 L 15.953125 -5.109375 C 15.953125 -3.453125 15.519531 -2.1875 14.65625 -1.3125 C 13.789062 -0.4375 12.519531 0 10.84375 0 L 6.875 0 C 5.21875 0 3.953125 -0.4375 3.078125 -1.3125 C 2.203125 -2.1875 1.765625 -3.453125 1.765625 -5.109375 Z M 7.90625 -4.578125 L 9.96875 -4.578125 C 10.90625 -4.578125 11.375 -5.046875 11.375 -5.984375 L 11.375 -22.375 C 11.375 -23.3125 10.90625 -23.78125 9.96875 -23.78125 L 7.90625 -23.78125 C 6.957031 -23.78125 6.484375 -23.3125 6.484375 -22.375 L 6.484375 -5.984375 C 6.484375 -5.046875 6.957031 -4.578125 7.90625 -4.578125 Z M 7.90625 -4.578125 "/></g></g></g><g fill="#2b2b2b" fill-opacity="1"><g transform="translate(144.80624, 225.749985)"><g><path d="M 6.875 -28.359375 L 10.84375 -28.359375 C 12.519531 -28.359375 13.789062 -27.925781 14.65625 -27.0625 C 15.519531 -26.207031 15.953125 -24.9375 15.953125 -23.25 L 15.953125 -19.5 C 15.953125 -19.125 15.765625 -18.9375 15.390625 -18.9375 L 11.703125 -18.9375 C 11.316406 -18.9375 11.125 -19.125 11.125 -19.5 L 11.125 -22.265625 C 11.125 -23.210938 10.65625 -23.6875 9.71875 -23.6875 L 8.015625 -23.6875 C 7.066406 -23.6875 6.59375 -23.210938 6.59375 -22.265625 L 6.59375 -17.375 L 15.03125 -14.609375 C 15.644531 -14.347656 15.953125 -13.910156 15.953125 -13.296875 L 15.953125 -5.109375 C 15.953125 -3.453125 15.519531 -2.1875 14.65625 -1.3125 C 13.789062 -0.4375 12.519531 0 10.84375 0 L 6.875 0 C 5.21875 0 3.953125 -0.4375 3.078125 -1.3125 C 2.203125 -2.1875 1.765625 -3.453125 1.765625 -5.109375 L 1.765625 -8.828125 C 1.765625 -9.203125 1.957031 -9.390625 2.34375 -9.390625 L 6.03125 -9.390625 C 6.40625 -9.390625 6.59375 -9.203125 6.59375 -8.828125 L 6.59375 -6.09375 C 6.59375 -5.15625 7.066406 -4.6875 8.015625 -4.6875 L 9.71875 -4.6875 C 10.65625 -4.6875 11.125 -5.15625 11.125 -6.09375 L 11.125 -10.8125 L 2.734375 -13.578125 C 2.085938 -13.785156 1.765625 -14.222656 1.765625 -14.890625 L 1.765625 -23.25 C 1.765625 -24.9375 2.203125 -26.207031 3.078125 -27.0625 C 3.953125 -27.925781 5.21875 -28.359375 6.875 -28.359375 Z M 6.875 -28.359375 "/></g></g></g><g fill="#2b2b2b" fill-opacity="1"><g transform="translate(170.04865, 225.749985)"><g><path d="M 1.765625 -0.5625 L 1.765625 -27.796875 C 1.765625 -28.171875 1.957031 -28.359375 2.34375 -28.359375 L 10.84375 -28.359375 C 12.519531 -28.359375 13.789062 -27.925781 14.65625 -27.0625 C 15.519531 -26.207031 15.953125 -24.9375 15.953125 -23.25 L 15.953125 -14.609375 C 15.953125 -12.953125 15.519531 -11.6875 14.65625 -10.8125 C 13.789062 -9.9375 12.519531 -9.5 10.84375 -9.5 L 6.59375 -9.5 L 6.59375 -0.5625 C 6.59375 -0.1875 6.40625 0 6.03125 0 L 2.34375 0 C 1.957031 0 1.765625 -0.1875 1.765625 -0.5625 Z M 6.59375 -14.1875 L 9.71875 -14.1875 C 10.65625 -14.1875 11.125 -14.65625 11.125 -15.59375 L 11.125 -22.265625 C 11.125 -23.210938 10.65625 -23.6875 9.71875 -23.6875 L 6.59375 -23.6875 Z M 6.59375 -14.1875 "/></g></g></g><g fill="#2b2b2b" fill-opacity="1"><g transform="translate(195.291064, 225.749985)"><g><path d="M 2.34375 -28.359375 L 6.03125 -28.359375 C 6.40625 -28.359375 6.59375 -28.171875 6.59375 -27.796875 L 6.59375 -0.5625 C 6.59375 -0.1875 6.40625 0 6.03125 0 L 2.34375 0 C 1.957031 0 1.765625 -0.1875 1.765625 -0.5625 L 1.765625 -27.796875 C 1.765625 -28.171875 1.957031 -28.359375 2.34375 -28.359375 Z M 2.34375 -28.359375 "/></g></g></g><g fill="#2b2b2b" fill-opacity="1"><g transform="translate(211.174902, 225.749985)"><g><path d="M 1.625 -28.359375 L 14.671875 -28.359375 C 15.054688 -28.359375 15.25 -28.171875 15.25 -27.796875 L 15.25 -24.25 C 15.25 -23.875 15.054688 -23.6875 14.671875 -23.6875 L 10.5625 -23.6875 L 10.5625 -0.5625 C 10.5625 -0.1875 10.375 0 10 0 L 6.3125 0 C 5.9375 0 5.75 -0.1875 5.75 -0.5625 L 5.75 -23.6875 L 1.625 -23.6875 C 1.25 -23.6875 1.0625 -23.875 1.0625 -24.25 L 1.0625 -27.796875 C 1.0625 -28.171875 1.25 -28.359375 1.625 -28.359375 Z M 1.625 -28.359375 "/></g></g></g><g fill="#2b2b2b" fill-opacity="1"><g transform="translate(234.999348, 225.749985)"><g><path d="M 18.859375 0 L 15.109375 0 C 14.796875 0 14.601562 -0.164062 14.53125 -0.5 L 13.546875 -5.671875 L 7.234375 -5.671875 L 6.28125 -0.5 C 6.207031 -0.164062 6.015625 0 5.703125 0 L 1.921875 0 C 1.492188 0 1.335938 -0.203125 1.453125 -0.609375 L 7.34375 -27.859375 C 7.40625 -28.191406 7.601562 -28.359375 7.9375 -28.359375 L 12.875 -28.359375 C 13.195312 -28.359375 13.394531 -28.191406 13.46875 -27.859375 L 19.359375 -0.609375 C 19.429688 -0.203125 19.265625 0 18.859375 0 Z M 12.65625 -9.78125 L 10.390625 -22.15625 L 8.125 -9.78125 Z M 12.65625 -9.78125 "/></g></g></g><g fill="#2b2b2b" fill-opacity="1"><g transform="translate(263.290389, 225.749985)"><g><path d="M 6.59375 -4.6875 L 6.59375 -27.796875 C 6.59375 -28.171875 6.40625 -28.359375 6.03125 -28.359375 L 2.34375 -28.359375 C 1.957031 -28.359375 1.765625 -28.171875 1.765625 -27.796875 L 1.765625 -0.5625 C 1.765625 -0.1875 1.957031 0 2.34375 0 L 15.03125 0 C 15.40625 0 15.59375 -0.1875 15.59375 -0.5625 L 15.59375 -4.109375 C 15.59375 -4.492188 15.40625 -4.6875 15.03125 -4.6875 Z M 6.59375 -4.6875 "/></g></g></g></svg>