<svg width="26" height="26" viewBox="0 0 26 26" fill="none" xmlns="http://www.w3.org/2000/svg">
<circle cx="12.9505" cy="12.7762" r="12.7762" fill="white"/>
<path fill-rule="evenodd" clip-rule="evenodd" d="M8.9766 5.32335C7.0553 5.32335 5.49778 6.88087 5.49778 8.80216V16.8245C5.49778 18.7458 7.0553 20.3033 8.9766 20.3033H16.9989C18.9202 20.3033 20.4777 18.7458 20.4777 16.8245V8.80216C20.4777 6.88087 18.9202 5.32335 16.9989 5.32335H8.9766ZM4.43311 8.80216C4.43311 6.29286 6.4673 4.25867 8.9766 4.25867H16.9989C19.5082 4.25867 21.5424 6.29286 21.5424 8.80216V16.8245C21.5424 19.3338 19.5082 21.368 16.9989 21.368H8.9766C6.4673 21.368 4.43311 19.3338 4.43311 16.8245V8.80216ZM13.4152 10.1309C12.8583 10.0483 12.2896 10.1434 11.7899 10.4027C11.2901 10.662 10.8849 11.0723 10.6318 11.5752C10.3787 12.078 10.2906 12.6479 10.38 13.2037C10.4695 13.7596 10.7319 14.2731 11.13 14.6711C11.5281 15.0692 12.0416 15.3317 12.5974 15.4211C13.1532 15.5106 13.7231 15.4224 14.226 15.1693C14.7289 14.9162 15.1391 14.511 15.3984 14.0113C15.6577 13.5116 15.7528 12.9428 15.6703 12.3859C15.586 11.8179 15.3213 11.292 14.9152 10.8859C14.5092 10.4798 13.9833 10.2151 13.4152 10.1309ZM11.2995 9.45768C11.998 9.09525 12.793 8.96229 13.5714 9.07772C14.3654 9.19546 15.1005 9.56545 15.6681 10.133C16.2357 10.7006 16.6057 11.4357 16.7234 12.2297C16.8388 13.0081 16.7059 13.8031 16.3435 14.5016C15.981 15.2001 15.4076 15.7666 14.7047 16.1203C14.0017 16.4741 13.2052 16.5973 12.4282 16.4723C11.6513 16.3472 10.9336 15.9804 10.3771 15.424C9.8207 14.8676 9.45389 14.1498 9.32887 13.3729C9.20385 12.596 9.32699 11.7994 9.68079 11.0965C10.0346 10.3936 10.601 9.82012 11.2995 9.45768ZM17.4 7.86873C17.106 7.86873 16.8677 8.10706 16.8677 8.40107C16.8677 8.69507 17.106 8.9334 17.4 8.9334H17.4087C17.7027 8.9334 17.941 8.69507 17.941 8.40107C17.941 8.10706 17.7027 7.86873 17.4087 7.86873H17.4Z" fill="#57A4FF"/>
</svg>
