<svg width="26" height="26" viewBox="0 0 26 26" fill="none" xmlns="http://www.w3.org/2000/svg">
<g clip-path="url(#clip0_53_1032)">
<path d="M22.3583 11.0349C22.3583 18.4876 12.7762 24.8757 12.7762 24.8757C12.7762 24.8757 3.19409 18.4876 3.19409 11.0349C3.19409 8.49354 4.20363 6.05629 6.00063 4.25929C7.79762 2.4623 10.2349 1.45276 12.7762 1.45276C15.3175 1.45276 17.7548 2.4623 19.5518 4.25929C21.3488 6.05629 22.3583 8.49354 22.3583 11.0349Z" stroke="white" stroke-width="1.06468" stroke-linecap="round" stroke-linejoin="round"/>
<path d="M12.7761 14.2289C14.5401 14.2289 15.9701 12.7989 15.9701 11.0349C15.9701 9.27084 14.5401 7.84082 12.7761 7.84082C11.0121 7.84082 9.58203 9.27084 9.58203 11.0349C9.58203 12.7989 11.0121 14.2289 12.7761 14.2289Z" stroke="white" stroke-width="1.06468" stroke-linecap="round" stroke-linejoin="round"/>
</g>
<defs>
<clipPath id="clip0_53_1032">
<rect width="25.5523" height="25.5523" fill="white" transform="translate(0 0.388062)"/>
</clipPath>
</defs>
</svg>
