<svg width="67" height="58" viewBox="0 0 67 58" fill="none" xmlns="http://www.w3.org/2000/svg">
<path d="M51.4028 38.7088C51.4028 48.793 43.228 56.9678 33.1439 56.9678L5.75547 56.9678C2.95432 56.9678 0.683537 54.697 0.683537 51.8958L0.68354 17.4067C0.68354 11.8044 5.2251 7.26286 10.8274 7.26286L46.3309 7.26287C49.132 7.26287 51.4028 9.53365 51.4028 12.3348L51.4028 38.7088Z" fill="#E8F5E9"/>
<path d="M24.737 17.7371C21.1143 17.7371 18.1652 20.7132 18.1652 24.3512C18.1652 26.6527 19.347 28.6848 21.1316 29.8693C18.9762 30.59 17.1111 31.937 15.7432 33.6991C14.9869 33.1174 14.1418 32.6495 13.2308 32.3143C14.6123 31.2887 15.515 29.6412 15.515 27.7896C15.515 24.7041 13.0196 22.1782 9.95277 22.1782C6.88597 22.1782 4.3905 24.7041 4.3905 27.7896C4.3905 29.6423 5.29401 31.2905 6.67663 32.3161C3.01614 33.6669 0.401855 37.2034 0.401855 41.3654V44.289C0.40223 44.5119 0.491382 44.7254 0.649456 44.8824C0.807528 45.0397 1.02142 45.1274 1.2443 45.1266H14.0712C14.1023 45.13 14.1334 45.1319 14.1644 45.1315H35.3102C35.3413 45.1319 35.3727 45.13 35.4035 45.1266H48.2313C48.6924 45.1248 49.0659 44.7505 49.067 44.289V41.3654C49.067 37.2034 46.4572 33.6669 42.7986 32.3157C44.1813 31.2905 45.0848 29.6419 45.0848 27.7892C45.0848 24.7037 42.5893 22.1778 39.5225 22.1778C36.4558 22.1778 33.9602 24.7037 33.9602 27.7892C33.9602 29.6408 34.8634 31.2886 36.2448 32.3139C35.3319 32.6499 34.4865 33.1193 33.7291 33.7025C32.3618 31.9393 30.4994 30.5904 28.3441 29.8693C30.1282 28.6848 31.3105 26.6527 31.3105 24.3512C31.3105 20.7132 28.3598 17.7371 24.7372 17.7371H24.737ZM24.737 19.4152C27.4464 19.4152 29.6306 21.6141 29.6306 24.3512C29.6306 27.0669 27.4804 29.2444 24.801 29.2793C24.7797 29.2793 24.7587 29.2763 24.737 29.2763C24.7152 29.2763 24.6946 29.2793 24.6729 29.2793C21.9935 29.2449 19.8448 27.067 19.8448 24.3512C19.8448 21.6137 22.0272 19.4152 24.7366 19.4152H24.737ZM9.95287 23.8563C12.1026 23.8563 13.837 25.6011 13.837 27.7895C13.837 29.9632 12.1251 31.7006 9.99554 31.7242C9.98131 31.7242 9.96745 31.7227 9.95284 31.7227C9.93861 31.7227 9.92475 31.7242 9.91014 31.7242C7.7806 31.7006 6.06869 29.9629 6.06869 27.7895C6.06869 25.6012 7.80304 23.8563 9.95281 23.8563H9.95287ZM39.522 23.8563C41.6718 23.8563 43.4061 25.6011 43.4061 27.7895C43.4061 29.9632 41.6942 31.7006 39.5647 31.7242C39.5504 31.7242 39.5366 31.7227 39.522 31.7227C39.5077 31.7227 39.4939 31.7242 39.4793 31.7242C37.3497 31.7006 35.6378 29.9629 35.6378 27.7895C35.6378 25.6012 37.3722 23.8563 39.5219 23.8563H39.522ZM24.6727 30.9574C24.6941 30.9578 24.715 30.9604 24.7368 30.9604C24.7581 30.9604 24.7791 30.9574 24.8008 30.9574C30.1743 30.9919 34.4747 35.3292 34.4747 40.7588L34.4743 43.4528H15V40.7588C15 35.3287 19.2992 30.9919 24.6719 30.9574H24.6727ZM9.88862 33.4042C9.90997 33.4046 9.93095 33.4072 9.95267 33.4072C9.9744 33.4072 9.995 33.4042 10.0167 33.4042C11.8342 33.4188 13.4929 34.0455 14.8137 35.094C13.8686 36.7662 13.322 38.6964 13.322 40.7593V43.4469H2.07933V41.3653C2.07933 36.9526 5.5488 33.4387 9.88842 33.4039L9.88862 33.4042ZM39.4577 33.4042C39.4795 33.4046 39.5001 33.4072 39.5218 33.4072C39.5435 33.4072 39.5641 33.4042 39.5859 33.4042C43.9255 33.4387 47.3949 36.9531 47.3949 41.3657V43.4469H36.1465L36.1461 40.7593C36.1461 38.6975 35.6011 36.7688 34.6578 35.097C35.979 34.047 37.6388 33.4188 39.4578 33.4042H39.4577Z" fill="#103E13"/>
</svg>
