<svg width="59" height="54" viewBox="0 0 59 54" fill="none" xmlns="http://www.w3.org/2000/svg">
<g clip-path="url(#clip0_53_1424)">
<path d="M1.37075 54C1.03945 54 0.717156 53.8801 0.478135 53.6589C0.163041 53.3672 0.0415051 52.9437 0.15989 52.5477L3.99548 39.7283C1.60752 35.7762 0.348496 31.3053 0.350297 26.7668C0.357049 12.0074 13.4802 0 29.6049 0C37.426 0.00288392 44.7749 2.79121 50.2985 7.85042C55.8212 12.91 58.8614 19.6357 58.8591 26.7882C58.8519 41.5481 45.7287 53.5563 29.6049 53.5563C29.6049 53.5563 29.5928 53.5563 29.5923 53.5563C24.8826 53.5546 20.2133 52.5041 16.0559 50.5142L1.68899 53.9625C1.58366 53.9876 1.47653 54 1.37075 54Z" fill="white"/>
<path d="M1.37073 52.8508L5.34272 39.5754C2.89263 35.6899 1.6039 31.2825 1.6057 26.7671C1.612 12.6414 14.1717 1.14902 29.605 1.14902C37.0943 1.1519 44.1241 3.81992 49.4105 8.66241C54.6964 13.5049 57.6065 19.9418 57.6038 26.7877C57.5971 40.9131 45.0356 52.4071 29.605 52.4071C29.6041 52.4071 29.6054 52.4071 29.605 52.4071H29.5928C24.9069 52.4055 20.3029 51.3298 16.2135 49.2884L1.37073 52.8508ZM16.9008 44.6506L17.7511 45.1117C21.3234 47.0521 25.4192 48.0784 29.596 48.0804H29.605C42.4311 48.0804 52.8707 38.5273 52.8761 26.7861C52.8783 21.0962 50.4602 15.7457 46.0664 11.721C41.6722 7.6963 35.8299 5.47858 29.6135 5.47611C16.777 5.47611 6.33797 15.028 6.33301 26.7688C6.33121 30.7922 7.56098 34.7102 9.89088 38.1009L10.4445 38.9067L8.09304 46.7641L16.9008 44.6506Z" fill="white"/>
<path d="M2.34424 51.9565L6.17893 39.14C3.81303 35.3893 2.56931 31.1339 2.57066 26.7754C2.57651 13.1387 14.7018 2.04426 29.5998 2.04426C36.8308 2.04714 43.6175 4.62289 48.7197 9.29771C53.8234 13.9725 56.6322 20.1865 56.6295 26.7948C56.6232 40.432 44.4975 51.5276 29.6012 51.5276C29.5998 51.5276 29.6016 51.5276 29.6012 51.5276H29.589C25.0656 51.526 20.6206 50.487 16.6729 48.5177L2.34424 51.9565Z" fill="#64B161"/>
<path d="M1.37073 52.8508L5.34272 39.5754C2.89263 35.6899 1.6039 31.2825 1.6057 26.7671C1.612 12.6414 14.1717 1.14902 29.605 1.14902C37.0943 1.1519 44.1241 3.81992 49.4105 8.66241C54.6964 13.5049 57.6065 19.9418 57.6038 26.7877C57.5971 40.9131 45.0356 52.4071 29.605 52.4071C29.6041 52.4071 29.6054 52.4071 29.605 52.4071H29.5928C24.9069 52.4055 20.3029 51.3298 16.2135 49.2884L1.37073 52.8508ZM16.9008 44.6506L17.7511 45.1117C21.3234 47.0521 25.4192 48.0784 29.596 48.0804H29.605C42.4311 48.0804 52.8707 38.5273 52.8761 26.7861C52.8783 21.0962 50.4602 15.7457 46.0664 11.721C41.6722 7.6963 35.8299 5.47858 29.6135 5.47611C16.777 5.47611 6.33797 15.028 6.33301 26.7688C6.33121 30.7922 7.56098 34.7102 9.89088 38.1009L10.4445 38.9067L8.09304 46.7641L16.9008 44.6506Z" fill="white"/>
<path fill-rule="evenodd" clip-rule="evenodd" d="M22.6072 16.0572C22.0832 14.991 21.5313 14.9696 21.0326 14.951C20.6248 14.9349 20.158 14.9358 19.6921 14.9358C19.2258 14.9358 18.4677 15.0964 17.8267 15.7371C17.1853 16.3777 15.3776 17.9268 15.3776 21.0773C15.3776 24.2282 17.8848 27.2724 18.2346 27.7C18.5843 28.1273 23.0744 34.799 30.1851 37.3657C36.0949 39.499 37.2972 39.0746 38.5801 38.9679C39.863 38.8612 42.7191 37.4189 43.302 35.9237C43.8854 34.4286 43.8854 33.1473 43.7103 32.8791C43.5352 32.6126 43.0689 32.4523 42.3694 32.1322C41.6698 31.8121 38.2304 30.2626 37.5889 30.0492C36.9475 29.8354 36.4812 29.7291 36.0148 30.3701C35.548 31.0104 34.2084 32.4523 33.8002 32.8791C33.3919 33.3072 32.9836 33.3608 32.2841 33.0402C31.5846 32.7193 29.3312 32.0436 26.6584 29.8621C24.5787 28.1652 23.1743 26.069 22.766 25.4279C22.3582 24.7877 22.7593 24.4713 23.0735 24.1215C23.6393 23.4916 24.5886 22.359 24.8218 21.9322C25.055 21.5045 24.9384 21.1309 24.7637 20.8103C24.5886 20.4902 23.2288 17.3237 22.6072 16.0572Z" fill="white"/>
</g>
<defs>
<clipPath id="clip0_53_1424">
<rect width="59" height="54" fill="white"/>
</clipPath>
</defs>
</svg>
